<svg xmlns="http://www.w3.org/2000/svg" xmlns:xlink="http://www.w3.org/1999/xlink" viewBox="0 0 1600 1200" xmlns:v="https://vecta.io/nano"><style><![CDATA[.T{fill:#161616}.U{fill:#fff}.V{stroke:#161616}.W{stroke-width:3}.X{stroke-miterlimit:10}.Y{fill:#ec615b}.Z{fill:#3d3d3d}.a{fill:#5222d0}]]></style><g fill="#e8e8e8"><path d="M1084.8 284.4l.5 9.2c0 .6.4 1.4 1.1 1.4 84.2 11.6 169.1 1.8 253.6 2 23.9 0 47.7.9 71.5 3.2.6.1 1.3-.5 1.4-1.1l2.5-12.3c.4-1.9-2.5-2.7-2.9-.8l-2.5 12.3c.5-.4 1-.7 1.4-1.1-83.7-8.2-167.7 2.1-251.6.3-24.3-.5-48.6-2.1-72.7-5.4.4.5.7 1 1.1 1.4l-.5-9.2c0-1.8-3-1.8-2.9.1h0z"/><path d="M1087.3 285.9h253.9 72c1.9 0 1.9-3 0-3h-253.9-72c-1.9 0-1.9 3 0 3h0z"/><path d="M1105.5 283.5l7.7-107.7c.4-4.7.9-9.3 1.7-13.9.3-1.7.4-5.2 1.4-6.6 1.3-1.8 4.1-1.8 6.1-2.1 4.6-.8 12.3-3.6 15.5 1.1.9 1.4 1.1 4.3 1.4 6 .6 3 1 6 1.3 9 1.6 17.6-.7 35.5-2 53.1l-4.5 61.2c-.1 1.9 2.9 1.9 3 0l6.4-87.5c.8-13.4 1.2-27.1-2.1-40.3-.9-3.7-2.3-6.8-6.5-7.2-6.4-.5-13.8 1.7-20 3-.5.1-.9.6-1 1-5.3 20.7-5.1 43-6.6 64.2l-4.7 66.7c-.2 1.9 2.8 1.9 2.9 0h0z"/><path d="M1142.7 193.2c12.2 30.7 25.1 61.1 38.6 91.2.8 1.8 3.4.2 2.6-1.5-13.4-29.9-26.2-60.1-38.3-90.5-.7-1.8-3.6-1-2.9.8h0zm2.6-16.1c2.5-7.1 10.2-11 17.4-9 1.9.5 2.7-2.4.8-2.9-8.8-2.5-18.1 2.5-21.1 11.1-.6 1.9 2.3 2.6 2.9.8h0z"/><path d="M1162.7 168.7L1222 284c.9 1.7 3.5.2 2.6-1.5l-59.3-115.3c-.9-1.8-3.5-.3-2.6 1.5h0z"/><path d="M1214.8 142.9l9.5 139.5c.1 1.9 3.1 1.9 3 0l-9.5-139.5c-.1-1.9-3.1-1.9-3 0h0z"/><path d="M1217.4 144.5c5.1-4.6 12-4.6 18.4-3.5 2.6.4 5.4.9 7.9 1.8 4.6 1.7 3.9 5.9 4.1 10l1.7 42.9 3.4 86.8c.1 1.9 3.1 1.9 3 0l-4.1-103.7-1-25.9c-.2-4.4.4-9.8-4.2-12.2-4.8-2.5-12.2-3.4-17.6-3.3-5.2.1-9.8 1.5-13.6 5-1.5 1.2.6 3.4 2 2.1h0zm-52.3 22.5c9.5.6 18.8 3.4 27.9 6 8.4 2.4 16.6 5.4 23.7 10.6 1.6 1.1 3.1-1.5 1.5-2.6-7.4-5.3-15.8-8.4-24.5-10.9-9.4-2.7-18.9-5.4-28.7-6.1-1.9-.2-1.9 2.8.1 3h0z"/><path d="M1251.3 161.7c4.4-1.1 9.3-2.2 13.9-1.3 6.8 1.4 8.2 7.4 8.5 13.5l1 36.8 1 72.6c0 1.9 3 1.9 3 0l-1.3-86.5-.6-20.9c-.2-4.6-.1-9.7-2.9-13.6-5.2-7.3-15.9-5.5-23.3-3.6-2 .6-1.2 3.5.7 3h0z"/><path d="M1273.2 145.9v26.9c0 1.9 3 1.9 3 0v-26.9c0-1.9-3-1.9-3 0h0z"/><path d="M1277.6 147l2.5.9.3 2.2.4 5 .6 7.9 1 16.9 1.6 34.8c.9 22.9 1.2 45.8 1.2 68.7 0 1.9 3 1.9 3 0 0-28.5-.6-57.1-1.9-85.6l-2.5-41.7c-.2-3.4.4-9.6-2.7-12-2.1-1.6-5-1-6.1 1.4-.7 1.8 1.8 3.3 2.6 1.5h0zm-147.4 152.1c3.1 5.2 6.1 13 11.1 16.7 4.9 3.7 10.9.4 16.3 2.3 1.8.6 2.6-2.3.8-2.9-4.8-1.7-10.4 1-14.7-1.7-4.9-3-8-11.1-10.9-16-1-1.6-3.6-.1-2.6 1.6h0z"/><path d="M1161.6 300.4c-.4 5.2-2 9.9-4.6 14.3-1 1.7 1.6 3.2 2.6 1.5 3-4.9 4.6-10.2 5-15.8.2-1.9-2.8-1.9-3 0h0z"/><path d="M1153.1 302.9l2.8 13.8c.4 1.9 3.3 1.1 2.9-.8l-2.8-13.8c-.4-1.9-3.3-1.1-2.9.8h0z"/><path d="M1156.7 302.8c.2 0 .4.1.6.2.3.6.3 1.2.2 1.8-.1.7-.4 1.4-.6 2.1-.4 1.4-.5 2.7-.1 4.1.6 1.9 3.2 1.1 2.9-.8-.5-2.7-.1-5.4 1-7.9l-2.9-.4-.8 9.4c-.2 1.9 2.8 1.9 3 0l.8-9.4c.2-1.8-2.4-1.8-2.9-.4-1.3 3.1-1.5 6.3-1 9.5l2.9-.8c-.9-3 2.6-6.7-.4-9.4-1.8-1.6-4.7-1-5.4 1.3-.8 1.8 2.1 2.6 2.7.7h0zm156.7-21.9c-.9-3.7-1.3-7.3-1-11.1l-1.5 1.5 53.1-2.4a594.15 594.15 0 0 1 26.7 0c2 0 4 .1 5.9.1 2 .1 6.1-.6 7.9.3 4 1.9 2.3 9.6 2.3 13.1 0 1.9 3 1.9 3 0 0-4.7 2.4-14.7-4-16-4.4-.9-9.6-.4-14.1-.5l-16.8-.1c-21.3.1-42.6 1.4-64 2.5a1.54 1.54 0 0 0-1.5 1.5c-.2 4.1.1 8 1.2 11.9.3 1.9 3.2 1.1 2.8-.8h0z"/><path d="M1324.5 250.8c1.2 5.5 2.1 11 2.5 16.6.1 1.9 3.1 1.9 3 0-.4-5.9-1.3-11.7-2.6-17.4-.4-1.8-3.3-1-2.9.8h0z"/><path d="M1326.5 252.7c12.1-1 24.2-2.1 36.3-1.6 11.4.5 22.9 4.2 34.3 3l-1.5-1.5c-.4 5.3.2 10.3 1.9 15.4.6 1.8 3.5 1 2.9-.8-1.6-4.8-2.2-9.5-1.8-14.6.1-.8-.7-1.6-1.5-1.5-11.4 1.1-22.9-2.6-34.3-3-12.1-.5-24.3.6-36.3 1.6-1.9.1-1.9 3.1 0 3h0zM1224.7 563v12.5c0 1.9 3 1.9 3 0V563c0-1.9-3-1.9-3 0h0z"/><path d="M1226.2 562h233.4c1.9 0 1.9-3 0-3h-233.4c-2 0-2 3 0 3h0zm2.4 13.8h229.7c1.9 0 1.9-3 0-3h-229.7c-1.9 0-1.9 3 0 3h0z"/><path d="M1458.1 563v8.7c0 1.9 3 1.9 3 0V563c0-1.9-3-1.9-3 0h0zm-210.3-33.7c2.6 10.3 5 20.7 7 31.1.4 1.9 3.3 1.1 2.9-.8-2-10.4-4.3-20.8-7-31.1-.5-1.9-3.4-1.1-2.9.8h0zm52-.9c-2.4 10.3-4.4 20.6-5.9 31-.3 1.9 2.6 2.7 2.9.8 1.5-10.4 3.5-20.8 5.9-31 .4-1.9-2.5-2.7-2.9-.8h0z"/><path d="M1239.6 523.7c.2 5.2 8 4.8 11.8 5 8.6.4 17.3-.9 25.9-1.4 4.3-.3 8.6-.4 12.9 0 3.5.3 7.3 1.5 10.7.8 3.8-.8 6.2-4.4 4-7.9-1-1.6-3.6-.1-2.6 1.5 2.8 4.7-6.7 3.2-7.6 3.1-2.1-.3-4.3-.5-6.4-.6-4.9-.3-9.9 0-14.8.4-3.2.2-30.8 3.5-30.9-.9 0-2-3-2-3 0h0z"/><path d="M1243.1 523.3c-1.8-5.6 13.7-5 16.3-5.1l13.9-.6c2.5-.1 28.5-.8 27.8 1.1-.6 1.8 2.3 2.6 2.9.8 3-8.9-29.5-5-33.7-4.8-7.8.3-16.5-.4-24.1 1.1-4 .8-7.4 3.8-6 8.2.6 1.9 3.5 1.1 2.9-.7h0z"/><path d="M1256.4 515c-4.6-2.1-8.7-5.1-11.9-8.9-1.3-1.6-10.5-14.9-5.1-15.7.9-.1 1.4-1.5.9-2.2-2.9-4.2-4.1-9.6-5.6-14.4l-5-15.5c-.3-1.1-.8-2.1-1-3.2-.5-2.1-.8-2.1 1.7-2.3 2.7-.2 4.1 1.9 5.9 3.7 3.4 3.4 6.4 7.1 9.1 11 10.1 14.6 15.7 31.8 19.9 48.9.5 1.9 3.4 1.1 2.9-.8-5.4-21.8-13.3-44.2-29.3-60.7-2.2-2.3-6.4-7.6-10.1-7-2.8.5-3.6 3.5-3.4 6 .4 5.6 3.4 11.7 5.2 17.1 2 6.2 3.3 13.4 7.1 18.8.3-.7.6-1.5.9-2.2-6.6 1-2.8 10.2-1 13.8 3.8 7.3 9.9 12.9 17.3 16.4 1.7.6 3.2-2 1.5-2.8h0z"/><path d="M1259.8 487.6c-.3-12.7-.6-25.9 3.7-38 2.1-5.9 5.3-11.2 9-16.2.9-1.3 1.9-3.4 3.3-4.2 1-1.6 2.5-1.8 4.4-.5 2.4-.6 3.6 0 3.6 1.8 1.2 2.7.8 7.3.8 10.1 0 6.7-1.6 12.9-3.2 19.3-.6 2.2-1.1 4.5-.9 6.7.2 2.6 1.6 4.6 2.3 7 2 6.8-1.5 13.8-3.9 20l-7.3 19.6c-.7 1.8 2.2 2.6 2.9.8l9.6-25.8c2.1-6.1 3.1-11.4.7-17.4-3.2-8.1 1.9-17.2 2.6-25.5.4-5.4 1.3-14.6-2.2-19.4-7.6-10.5-19.7 11.9-22.1 16.9-6.8 14-6.7 29.7-6.3 44.9.1 1.9 3.1 1.9 3-.1h0zm-25.2-24.6c9.9 13.9 15.8 30.6 22.7 46.1.8 1.8 3.4.2 2.6-1.5-6.8-15.6-12.8-32.2-22.7-46.1-1.1-1.6-3.7-.1-2.6 1.5h0z"/><path d="M1262.2 455.9c.4 5.3 2.2 10 5.5 14.1 1.2 1.5 3.3-.6 2.1-2.1-2.7-3.5-4.3-7.6-4.6-12-.1-1.9-3.1-1.9-3 0h0zm13.6-.7l7.3-10.8c1.1-1.6-1.5-3.1-2.6-1.5l-7.3 10.8c-1 1.6 1.6 3.1 2.6 1.5h0zm29.8-2c-2.5 4-6.1 7.1-9.4 10.3l-10.8 10.3c-1.4 1.3.7 3.5 2.1 2.1 6.9-6.6 15.6-13 20.7-21.2 1-1.6-1.6-3.1-2.6-1.5h0z"/><path d="M1304.3 457.2c.2 5.3 9 15.1 2.2 18.3-.9.5-.9 1.7-.3 2.4 2.3 2.8.8 7 .5 10.3-.3 3.7 0 7.4-1 11-1.8 6.9-8.2 11-13.9 14.6-1.6 1-.1 3.6 1.5 2.6 6.9-4.4 14-9.4 15.6-18 .8-4.6.8-9.4 1.2-14 .4-3.3.3-5.9-1.9-8.5l-.3 2.4c9.5-4.5-.5-14.7-.7-20.9 0-2.1-3-2.1-2.9-.2h0zm-4.8 14.7c-6.9 11.1-12.8 22.7-17.7 34.9-.7 1.8 2.2 2.6 2.9.8 4.8-11.9 10.6-23.3 17.4-34.2 1-1.7-1.6-3.2-2.6-1.5h0zm-46.4 77.9c4 5.4 9.5 9.1 16.1 10.5 1.9.4 2.7-2.5.8-2.9-5.8-1.2-10.8-4.3-14.3-9.1-1.1-1.5-3.7 0-2.6 1.5h0zm-1.7-12.3c10.3 7.9 21.2 19.2 34.4 21.9 1.9.4 2.7-2.5.8-2.9-12.8-2.6-23.6-13.9-33.7-21.6-1.5-1.2-3 1.4-1.5 2.6h0z"/><path d="M1259.3 529.9l18.5 15.2c2.7 2.1 5.5 4.1 8.8 5.4 3.1 1.3 6.4 1.9 9.2 3.9 1.6 1.1 3.1-1.5 1.5-2.6-2.2-1.5-4.4-2.2-6.8-3.1-4.1-1.4-7.4-3.3-10.8-6-6.2-4.8-12.2-9.9-18.2-14.9-1.6-1.2-3.7.9-2.2 2.1h0z"/><path d="M1275.7 528.5c5.8 6 12.8 10.4 20.8 13 1.8.6 2.6-2.3.8-2.9-7.5-2.5-14-6.6-19.5-12.3-1.3-1.3-3.5.8-2.1 2.2h0zm73.6 29.1c-.6-1.6-1.5-3.7-1.4-5.4.4-4.4 3.4-4.8 6.3-5.3 4.2-.8 8.6-.9 12.9-.9 7.3-.1 14.7.5 22 .8 7.3.2 14.5-.2 21.8-.8 3-.3 8.3-1.5 11.2-.5 3 1.1 3.8 2.6 3.9 5.4.1 2.2.1 4.4.2 6.7.1 1.9 3.1 1.9 3 0-.1-3.4.9-9.4-.8-12.6-1.6-2.8-5.3-2.5-8.1-2.5-11.4 0-22.5 1.7-34 1.2-10.6-.4-21.3-1.3-31.8.3-8.6 1.3-10.8 6.6-7.9 14.6.4 1.6 3.3.8 2.7-1h0z"/><path d="M1370.5 541.5l2.3-5.4 2.7-.4c1.2-.1 2.3 0 3.5-.1l7.7-.1 16.4-.2 15.4-.2 3.9-.1c1.6 0 2.1-.4 2.6.8.6 1.5-.5 5.7-.7 7.3-.2 1.9 2.8 1.9 3 0 .2-2.4 1.7-7.4.5-9.6-1-1.8-2.5-1.5-4.5-1.5l-28.9.4-13.5.2c-3.4 0-7.6-.4-10.7 1.2-3.6 1.9-5.3 6.8-1.8 9.7 1.5 1.3 3.6-.8 2.1-2h0zm20.6-12.2c-2.6-3.5 8.3-3.1 9-3.2 2.4-.2 10.6-1.7 9 3.7-.6 1.9 2.3 2.6 2.9.8.7-2.4-.1-4.6-2-6.2-3.3-2.7-7.4-1.4-11.3-1.2-3.1.1-6.8-.9-9.3 1.5-1.8 1.6-2.3 4.1-.9 6.1 1.2 1.5 3.8 0 2.6-1.5h0zm-153 48.7c3.8 5.2 8.3 9.5 13.6 13.1 1.6 1.1 3.1-1.5 1.5-2.6-4.8-3.3-9.1-7.3-12.5-12.1-1.2-1.5-3.8 0-2.6 1.6h0z"/><path d="M1251.3 590.1h9.9c1.9 0 5 .5 6.7-.4 1.3-.7 1.7-2.3 2.3-3.5 1.6-3.2 3.5-6.2 5.7-9.1 1.2-1.5-.9-3.6-2.1-2.1-1.1 1.3-2.1 2.7-3.1 4.1-1.2 1.9-2 4.6-3.4 6.3-2.8 3.3-11.9 1.8-16 1.7-1.9 0-1.9 3 0 3h0z"/><path d="M1262.4 577.8l2.5 9.1c.5 1.9 3.4 1.1 2.9-.8l-2.5-9.1c-.5-1.9-3.4-1.1-2.9.8h0zm121.9-.5c1.6 3.3 3.3 6.5 5.4 9.5 1.1 1.6 2.5 4.1 4.4 5 2 1 4.8.2 6.8 0l10.8-1.1c1.9-.2 1.9-3.2 0-3l-7.2.7c-2.1.2-5.2 1.1-7.2.7-5.2-1-8.4-9.2-10.4-13.4-.9-1.7-3.5-.2-2.6 1.6h0z"/><path d="M1411.8 574.8c-1.2 4.3-1.8 8.7-1.7 13.1.1 1.9 3.1 1.9 3 0-.1-4.2.4-8.3 1.5-12.3.6-1.8-2.3-2.6-2.8-.8h0z"/><path d="M1413.1 589.4c4-3.8 7.8-7.8 11.5-11.9 1.3-1.4-.8-3.6-2.1-2.1-3.7 4.1-7.5 8.1-11.5 11.9-1.4 1.3.7 3.4 2.1 2.1h0zm-642.2-305v84.5c0 1.9 3 1.9 3 0v-84.5c0-1.9-3-1.9-3 0h0z"/><path d="M773.3 371.2h107.2c1.9 0 1.9-3 0-3H773.3c-2 0-2 3 0 3h0zm0-85.3h104c1.9 0 1.9-3 0-3h-104c-2 0-2 3 0 3h0z"/><path d="M877.3 284.4v84.5c0 1.9 3 1.9 3 0v-84.5c0-1.9-3-1.9-3 0h0zm-50.6-2.5c-.1-1.3.1-2.5.7-3.7.3-.7 1.5-2.5 2.2-2 .8.5 1.1 2.8 1.2 3.6.3 1.5.3 3 .1 4.5-.2 1.9 2.8 1.9 3 0 .2-2.6 0-5.2-.9-7.7-.6-1.6-1.4-3.5-3.3-3.7-4.1-.5-6.2 5.8-6 8.9.1 2.1 3.1 2.1 3 .1h0zm-50.1 12.2v67.4c0 1.9 3 1.9 3 0v-67.4c0-1.9-3-1.9-3 0h0z"/><path d="M778.1 363h94.2c1.9 0 1.9-3 0-3h-94.2c-1.9 0-1.9 3 0 3h0z"/><path d="M874.7 360.7v-67.4c0-1.9-3-1.9-3 0v67.4c0 2 3 2 3 0h0zm-95.8-64.3h91c1.9 0 1.9-3 0-3h-91c-1.9 0-1.9 3 0 3h0zm.5 50.7c11.7-3.5 23.6-6.6 35.2-1.2 8.3 3.9 15.5 9.8 24.8 11.5 1.9.3 2.7-2.5.8-2.9-10.6-2-18.6-9.7-28.7-13.1-10.9-3.6-22.3-.4-32.9 2.8-1.8.6-1 3.5.8 2.9h0z"/><path d="M818.4 345.4c14.3-5 29.2-6.8 44.2-5.3 1.9.2 1.9-2.8 0-3-15.3-1.5-30.5.3-45 5.4-1.8.7-1 3.6.8 2.9h0zm3.1-23.2c-1.1-1.9-.8-4.7 1.1-6 1.7-1.2 4.4-.7 5.6.9 1.2 1.7.5 4.4-1.4 5.4-2.2 1.1-4.7-1-4.7-3.2 0-1.9-3-1.9-3 0-.1 4 4 7.4 8 6.3 3.7-1 5.7-5.7 4.1-9.1-1.6-3.6-6.4-4.9-9.8-3.1-3.7 2-4.6 6.9-2.6 10.4 1.1 1.6 3.6.1 2.7-1.6h0zm487.1-23.3c3.6 4.8 4.3 11.3 8.7 15.5 4.1 4 9 3.4 14 1.6 1.8-.6 1-3.5-.8-2.9-2.7.9-5.8 1.9-8.6.8-2.4-1-4-3.2-5.2-5.5-1.9-3.7-3-7.7-5.5-11.1-1.2-1.5-3.8 0-2.6 1.6h0z"/><path d="M1330.9 314.8c4.8-4.1 9-8.8 12.6-14 1.1-1.6-1.5-3.1-2.6-1.5-3.4 5-7.5 9.5-12.1 13.4-1.5 1.2.6 3.4 2.1 2.1h0zm-7.3-17c1.4 3.3 2 6.7 1.9 10.2-.1 1.9 2.9 1.9 3 0 .1-4.1-.7-8-2.3-11.7-.7-1.8-3.3-.3-2.6 1.5h0zM1243.5 689v40c0 1.9 3 1.9 3 0v-40c0-1.9-3-1.9-3 0h0zm-36.5 45.5h106c1.9 0 1.9-3 0-3h-106c-1.9 0-1.9 3 0 3h0zm57.5 2.5v25c0 1.9 3 1.9 3 0v-25c0-1.9-3-1.9-3 0h0zm-58.5 29.5h94c1.9 0 1.9-3 0-3h-94c-1.9 0-1.9 3 0 3h0zm23.5 2.5v19c0 1.9 3 1.9 3 0v-19c0-1.9-3-1.9-3 0h0zm10-484.2c0-4.2-.8-9.5 0-13.6 1.1-5.8 9.2-4.7 13.9-5 1.9-.1 1.9-3.1 0-3-3.8.2-7.8.2-11.6.8-1.7.3-3.2.8-4.2 2.3-1.2 1.8-1 4.3-1 6.4v12.1c-.1 2 2.9 2 2.9 0h0zm-17.6-111.7c9.1-2.5 18.2-1.9 26.9 1.6 1.8.7 2.6-2.2.8-2.9-9.2-3.7-18.9-4.2-28.5-1.6-1.9.6-1.1 3.5.8 2.9h0zm-3.7-9c8-5.5 17.6-6.5 26.6-2.9 1.8.7 2.6-2.2.8-2.9-9.6-3.9-20.4-2.7-28.9 3.2-1.6 1.1-.1 3.7 1.5 2.6h0zm-32.5 52.4c-3.2 2.2-9.3 5.1-10.2 9.3-.4 2.2.6 4.2 1.4 6.2l4.3 10.5c5.8 13.7 12.3 27.1 19.5 40.1.9 1.7 3.5.2 2.6-1.5a436.37 436.37 0 0 1-15.3-30.6c-2.5-5.5-4.9-11.1-7.1-16.7-1.3-3.3-3.1-6.2-.7-9.6 1.4-2 5-3.7 7.1-5.1 1.5-1.1 0-3.7-1.6-2.6h0z"/></g><path d="M765.2 706.6c-8.2 6.1-18.1 15.9-21.7 29.9-2.6 10.4-.1 16.5-1 29.9-.6 9.3-3 22.4-10.7 38-17.5-3.6-46.9-7.1-81.6.9a189.46 189.46 0 0 0-49.5 19.1c1.9 1.2 4.5 2.6 7.8 3.5 18.7 5.1 38.4-10.6 39-9.5.6 1-22 11.6-20.8 20.8.8 6.2 11.9 9.5 23.4 13 9.7 2.9 18.9 5.7 31.2 4.3 16.9-1.9 28.6-10.4 33.8-14.8 5 2.5 12.4 5.8 21.7 8.7 17.1 5.2 40.7 12.4 56.4 2.6 10.2-6.4 13.3-21.4 19.1-51.2 7-36.3 10.3-54.5.9-69.4-12.3-19.9-37.6-24.5-48-25.8z" class="U V W X"/><g class="T"><path d="M728.6 805.5c12.1 4.5 22.1 12.7 29 23.6 1 1.6 3.6.1 2.6-1.5-7.3-11.6-18-20.2-30.8-25-1.9-.7-2.6 2.2-.8 2.9h0z"/><use xlink:href="#B"/><path d="M678.2 835.2c-4.3 2.6-8.3 5.6-12.1 8.8-2.5 2.2-5.3 4.8-4.7 8.4 1.5 9.5 12.9 7.4 19.1 5 1.8-.7 1-3.6-.8-2.9-2.7 1-5.7 2.3-8.6 2.2-4.7-.2-8.9-4.7-4.9-8.8 3.8-4 8.8-7.2 13.5-10.2 1.6-1 .1-3.6-1.5-2.5h0z"/></g><path d="M858.5 583.5c-5.1 1.7-11.6 4.3-18.9 7.9-2.1 1-7.4 3.7-13.1 7.4-8.8 5.6-15.2 11.5-22.5 18.9-9.3 9.5-18.7 19-29.9 34.2-9.4 12.8-24 32.9-34.5 62.4-4.2 11.7-6.6 21.8-8 29a51.23 51.23 0 0 1 14.4-5.7c22.5-5.1 44.1 6.3 64.6 17 7.7 4 13.8 7.9 18 10.6l6.6-32.5 5.6-27.4c2.9-2.5 6.8-6.2 11.1-11 8.1-9.2 24.2-27.5 26.4-52.9 2.7-29.3-14.7-51.7-19.8-57.9z" class="Y"/><g class="T"><path d="M852.6 584.7c-10.7 1.6-19.9 7.3-28.2 13.9-9.6 7.5-18.6 15.8-27 24.6-16.4 17-30.7 36-42.5 56.5-1 1.7 1.6 3.2 2.6 1.5 11.4-19.8 25-38.2 40.8-54.7 7.7-8 15.8-15.6 24.3-22.7 9.1-7.5 18.8-14.5 30.8-16.3 1.9-.2 1.1-3.1-.8-2.8h0zm-4.2 109.2c-7.4 7.5-15 14.8-22.7 21.9-1.4 1.3.7 3.4 2.1 2.1 7.7-7.1 15.3-14.4 22.7-21.9 1.3-1.4-.8-3.5-2.1-2.1h0z"/><path d="M838 707.6l-10.4 57.7 2.2-.9c-15.9-11.1-33.6-19.4-52.4-24.6-14.7-4-33.4-7.9-46 3.2-1.4 1.3.7 3.4 2.1 2.1 12.8-11.4 33.5-5.4 48-1 16.7 5.1 32.4 12.9 46.7 22.8.8.5 2 0 2.2-.9l10.4-57.7c.4-1.8-2.5-2.6-2.8-.7h0z"/><path d="M755.6 678.3c-10.4 20.3-23.4 41.2-24.3 64.7-.1 1.9 2.9 1.9 3 0 .9-22.9 13.7-43.3 23.9-63.2.8-1.7-1.8-3.2-2.6-1.5h0z"/></g><g class="Z"><path d="M844.5 640.5c-17.9 35.6-27.6 65.6-33.3 86.6-8.3 30.8-11.2 55.1-32.7 75.3-3.5 3.3-13.8 12.8-30 18.7-34 12.3-59.2-4.3-80.6 13.3-2.4 2-9.5 7-8.7 12.7.8 5.4 8.2 8.2 9.3 8.7 8.8 3.4 17.9-.1 29.3-4.7 12.9-5.2 11.5-7 17.3-8 12.2-2.1 17.8 5.6 34 10.7 6.9 2.1 27.3 8.5 42 0 10.8-6.3 14.1-18.1 19.3-38 3.6-13.5 7.3-33.2 6.7-58l12 9.3 15.4-126.6z" opacity=".4"/><path d="M838.5 683.8c-13.7 25.9-20.4 47.8-24 62.6-7.2 29.7-4.9 43.7-14.7 64.6-10.5 22.7-27.5 37.1-39.3 45.3 6.6 1.5 22.5 4.3 34-4.7 8.1-6.3 10.2-15.3 13.3-30 3.9-18.1 8-38.7 12-61.3l9.3 6 9.4-82.5z" opacity=".38"/></g><path d="M856.4 581.5l-10.5 71c-13.2 92.3-24.6 183-34.2 272.2.2 3 1 7.8 4 12.6 3 4.9 7 7.4 8.9 8.7 18.2 13 27.3 19.6 36.5 24 44.1 21.3 92.9 18.8 92.9 18.8 10.3-.5 30.8-1.8 52.8-10.6 1.2-.5 9.6-4.4 26.4-12.3 15.2-7.1 17.9-8.5 21.6-11.9 8.8-8.1 12.2-18.1 14.5-25.2 4.9-15.1 4.4-27.9 4.2-31 0 0-1-24.9-1.7-170.3-.1-29.6 2.8-73.1 18.4-126.8l-49.7-24c-12.6-6.1-24.3-11.7-41.1-13.7-4.8-.6-9.1-.8-15.5-.7-26 .2-47.4 4.2-56.6 5.8-17.9 2.9-42.1 7.3-70.9 13.4z" class="Y"/><g class="T"><path d="M855.6 585c31-6.6 62.3-11.9 93.7-15.8 1.4-.2 2.2-2 .8-2.8-.4-.2-.8-.5-1.3-.7-1.7-1-3.2 1.6-1.5 2.6.4.2.8.5 1.3.7.3-.9.5-1.9.8-2.8-31.7 3.9-63.3 9.2-94.5 15.9-2 .4-1.2 3.3.7 2.9h0zm-9.3 52.4l-30 235.6-3.3 29.6c-.9 8.6-3.4 18.3-2.3 26.9 1 7.6 7 12.4 12.5 17 6 5 12.3 9.7 18.9 14 27.1 17.5 58.8 28 91 29.9 38.3 2.2 76.8-7.6 109.5-27.6 1.6-1 .1-3.6-1.5-2.6-57.2 34.9-130 36.3-188.3 3.2-6.7-3.8-13.2-8-19.4-12.6-6.3-4.7-16.5-11.1-19.1-18.8-1.2-3.7-.6-7.8-.2-11.7l1.6-14.8 3.1-27.6 13.5-112.3 17-127.4c.2-1.9-2.7-2.7-3-.8h0z"/><path d="M993.6 562.1c17.6 3.5 34.1 11.6 50.5 18.5 16.1 6.8 34 12.3 48.2 22.7 1.6 1.1 3.1-1.5 1.5-2.6-13.9-10.2-31.4-15.6-47.1-22.2-17-7.1-34.1-15.6-52.3-19.3-1.9-.4-2.7 2.5-.8 2.9h0zm78.4 169.6c-1.6 42.1-3.2 84.2-1.7 126.2.7 20.4 3.9 41.6.1 61.9-3.2 16.7-12.6 33.4-29.3 39.6-1.8.7-1 3.6.8 2.9 26.6-9.9 33.5-40.2 33.1-65.6-.2-17.2-1.7-34.4-2.1-51.7-.4-17.6-.2-35.1.1-52.7l1.9-60.6c.2-2-2.8-2-2.9 0h0z"/></g><g class="Z"><path d="M1057.6 708c-5.3 18.2-13.6 38.1-26.4 57.9-57.3 88.1-162.2 105.7-189 109.4l109.2 12.3 120.2 15.1c-2.5-44.7-2.5-81.5-1.9-107.8 1.1-54.4 5-98.4-2.1-99.8-1.7-.4-4.7 1.5-10 12.9z" opacity=".38"/><path d="M1069.9 740.7c-3.6 10.6-9.1 25.6-17.2 42.9-11.4 24.5-22.3 48.1-36.4 62.6-39.4 40.5-116.4 23-116.6 25.8-.1 1.6 28.1 6.1 170.5 19.2l-.3-150.5z" opacity=".42"/></g><g class="V X"><path d="M1249.3 1153L148.2 1006.1l325-188.4 993.4 97.9-217.3 237.4z" class="U W"/><g fill="none" stroke-width="16"><path d="M144.6 1014.6L1248.2 1161"/><path d="M1241.2 1163.2l231.2-244.6"/></g></g><g class="T"><path d="M1118.4 949c-37.5 29.3-74.2 59.5-110.3 90.5-1.5 1.3.7 3.4 2.1 2.1 36.1-31 72.9-61.2 110.3-90.5 1.5-1.1-.6-3.3-2.1-2.1h0z"/><path d="M1009.5 1041.1c11.8 2.5 23.8 2.5 35.9 2.6 13.6.2 26.4 1.6 39.4 5.4 24.4 7.1 48.3 11.8 73.8 11.2 1.9 0 1.9-3 0-3-13.1.3-26.2-.5-39.2-2.6-12.2-2-23.8-5.6-35.7-8.9-11.4-3.2-22.8-4.7-34.7-4.9-13-.3-26 .1-38.8-2.6-1.8-.5-2.6 2.4-.7 2.8h0zm111.1-89.9c39.6 3.2 78.9 9.5 117.5 18.9 1.9.5 2.7-2.4.8-2.9-38.8-9.5-78.4-15.8-118.3-19-1.9-.2-1.9 2.8 0 3h0z"/><path d="M1160.9 1058.5c27.9-27.6 54.7-56.4 80.1-86.4 1.2-1.5-.9-3.6-2.1-2.1-25.4 29.9-52.2 58.7-80.1 86.4-1.4 1.4.7 3.5 2.1 2.1h0zm-116.5-29.3c34.4-4.2 69.2.1 101.5 12.7 1.8.7 2.6-2.2.8-2.9-32.5-12.6-67.7-17-102.3-12.8-1.9.2-1.9 3.2 0 3h0zm52.1-11c21.2 1.6 42.1 4.9 62.8 9.8 1.9.5 2.7-2.4.8-2.9a400.72 400.72 0 0 0-63.6-9.9c-2-.1-1.9 2.9 0 3h0zm-15.9-22.1c31.9.7 63.5 5.3 94.3 13.8 1.9.5 2.7-2.4.8-2.9-31-8.5-62.9-13.2-95.1-13.9-1.9 0-1.9 3 0 3h0z"/><path d="M1120.2 986.9c17.2 2.4 34.2 5.4 51.2 9 1.9.4 2.7-2.5.8-2.9-17-3.6-34-6.6-51.2-9-1.9-.3-2.7 2.6-.8 2.9h0zm-21.9 67.1l-18.4 28.1c-.6.9.2 2.4 1.3 2.3 49.3-5.6 99.3-2.4 147.5 9.4 1.9.5 2.7-2.4.8-2.9-48.5-11.9-98.7-15.1-148.3-9.6.4.8.9 1.5 1.3 2.3l18.4-28.1c1.1-1.6-1.5-3.1-2.6-1.5h0zm120.9-56.8l57.8-1.2a23.07 23.07 0 0 1-1.4-1.9l-40 95c-.7 1.8 2.2 2.6 2.9.8l40-95c.4-.9-.6-1.9-1.4-1.9l-57.8 1.2c-2 .1-2 3.1-.1 3h0zm-73.1 74.5c5.1-1 10.2-1.2 15.4-.8 1.9.1 1.9-2.9 0-3a62.79 62.79 0 0 0-16.2.9c-1.9.3-1.1 3.2.8 2.9h0zm28.4.3c15.7.6 31.4 2.1 47 4.5 1.9.3 2.7-2.6.8-2.9-15.8-2.5-31.8-4-47.8-4.6-1.9-.1-1.9 2.9 0 3h0zm.9-18.8h11.2c1.9 0 1.9-3 0-3h-11.2c-1.9 0-1.9 3 0 3h0zm23.3-.3c12.3.3 24.5 1.5 36.7 3.5 1.9.3 2.7-2.6.8-2.9-12.4-2-24.9-3.2-37.5-3.6-1.9 0-1.9 3 0 3h0zm-1.9-17.1c14 .2 27.9 1 41.8 2.6 1.9.2 1.9-2.8 0-3-13.9-1.6-27.8-2.5-41.8-2.6-1.9-.1-1.9 2.9 0 3h0zm-93.9 33.2c6.7.2 13.3-.6 19.9-2.2 1.9-.5 1.1-3.4-.8-2.9-6.3 1.6-12.6 2.3-19.1 2.1-1.9 0-1.9 3 0 3h0zm47.5-156.7c-2.6 3.2-5.6 9.7-2.5 13.6 1.9 2.4 5.5 1.9 8.2 2l14.7.7 59.6 2.8c1.9.1 1.9-2.9 0-3l-44-2.1-21.5-1c-3.5-.2-7.2 0-10.7-.5-2.6-.4-4.5-.5-4.4-3.7.1-2.5 1.2-4.8 2.7-6.7 1.2-1.5-.9-3.7-2.1-2.1h0z"/><path d="M1153.1 916.1l50.4 1.7 24.7.8c7.4.3 15.2.8 20.5 6.5 1.3 1.4 3.4-.7 2.1-2.1-4-4.4-9.4-6.1-15.2-6.9-8.6-1.1-17.5-.9-26.2-1.2l-56.3-1.9c-1.9.1-1.9 3.1 0 3.1h0z"/><path d="M1229.4 931.5c7.7.1 15-2.3 21.2-6.9 1.5-1.1 0-3.7-1.5-2.6-5.8 4.3-12.4 6.6-19.7 6.5-2 0-2 3 0 3h0z"/><path d="M1231.8 916.1c-4.2 2.8-6.1 8-4.7 12.8.5 1.8 3.4 1.1 2.9-.8-1-3.5.2-7.4 3.3-9.5 1.6-1 .1-3.6-1.5-2.5h0z"/></g><g class="Y"><path d="M502.1 556.6c-2.5-5.2-9.6-5.6-13.4-1.7-4.1 4.2-6 12.3-5.6 18 .9 11.5 12.1 16.9 15.1 27.2 1.4 4.7 8.6 6.2 11 1.4 4-7.9 9.6-14.7 14.6-21.9 4.4-6.4 11.1-16.3 8.7-24.5-1-3.5-4.1-6.5-7.9-6.9-4.6-.5-7.8 2.3-10.5 5.7-2.7 3.5-5.1 7.1-7.1 11-1.8 3.4-3.2 7.4-6.7 9.3l8.8 3.6-3.8-12.8-10 5.8c4.5 5.1 12.2 5.8 17.6 1.5 2.5-2 3.9-4.7 5.6-7.3.8-1.2 1.5-2.3 2.7-3.1.8-.6 1.8-1 2.8-1.3 2-.1 1.9-.3-.2-.6l-3-5.2v.7c1.5-1.9 2.9-3.9 4.4-5.8-.2.1-.4.1-.6.2-7.3 2.3-4.2 13.9 3.2 11.6.2-.1.4-.1.6-.2 2.7-.8 4.2-3.1 4.4-5.8v-.7c.1-2.1-1.3-4.1-3-5.2-5-3.2-12.4-.1-16.5 3.2-2.3 1.9-3.9 4.1-5.5 6.6-1 1.6-2.1 5-4 2.8-4-4.5-11.7.3-10 5.8l3.8 12.8c1.1 3.8 5.4 5.5 8.8 3.6 5.1-2.7 7.9-7.4 10.4-12.4 1.5-2.9 3-5.7 4.9-8.3.3-.5 3-3.3 2.9-3.8-2.6-2.2-3.9-2.1-4.1.3-.2.8-.5 1.5-.8 2.2-5 12.1-15 21.3-20.9 32.9l11 1.4c-1.9-6.5-6.2-11.2-10.3-16.4-1.7-2.2-3.6-4.6-4.2-7.3-.4-1.9-.2-3.6.3-5.4a19.57 19.57 0 0 1 1.2-3.4c1.7-2.4 0-3-5-1.7 3.3 7.1 13.6 1 10.3-5.9h0z"/><path d="M508.6 589.4c8.8-10.6 16.5-21.9 22.9-34 3.6-6.8-6.8-12.9-10.4-6.1-5.9 11.3-12.8 21.9-21 31.6-4.9 5.9 3.5 14.4 8.5 8.5h0z"/></g><g class="a"><path d="M532.3 419.7c-1.6 10.5-1.2 20.8 1.6 31.1 1.5 5.6 10.2 3.2 8.7-2.4-2.3-8.6-3-17.5-1.6-26.3.8-5.7-7.9-8.1-8.7-2.4h0z"/><path d="M535.7 424.3c11 4.7 19.8-4.5 20.2-15.3 0-1-.6-3.7-.2-4.6h-.5c.9.3 1.6.8 2 1.7 1.6 2 2.4 4.6 4.1 6.6 3.5 4.1 8.3 4.7 13.4 5 2.5.1 5.5-.2 7 2.2 1.5 2.3.7 6.2.5 8.8-.2 3.6-.5 7.3-.8 10.9-.1.9-1 4.3.3 3-.8.9-4.1 1.1-5.2 1.4-6.6 1.5-13.4 2.1-20.1 1.7-3.5-.2-8.8.2-10.8-2.9-1.8-2.9-1.9-7.3-1.4-10.6l-8.2 1.1 7.1 16c1.6 3.5 7.4 2.5 8.2-1.1 2.4-10.8-.9-22.1 2.5-32.7l-7.5 2c2.9 3.5 2.2 11 2.9 15.3.8 5 2.2 9.6 4.5 14 2.1 3.8 8.7 2.2 8.4-2.3l-2.3-36.1-8.8 1.2c4.2 11.3 4.8 23.1 1.5 34.7l6.6-2.7c-5.6-4.3-9.8-9.9-12.7-16.3-1.9-4.1-8.6-2-8.4 2.3l.5 12h9c-.2-5 0-9.9 1-14.8.4-1.7.8-3.5 1.3-5.2.3-1.1.7-2.3 1.1-3.4 1.3-1.6 1.1-2.2-.6-1.8 4.8 6.8 5.4 17 4.6 24.9l8.4-2.3c-2.3-4.7-3.8-9.7-4.4-14.9-.3-2.7-.4-5.4-.2-8.1 0-.4.5-3.2.3-3.4-.7.1-1.4.1-2.1.2.4.8.8 1.5 1.2 2.3 4.6 9.4 6 20 4.9 30.4l8.4-2.3c-1.8-3.9-3.2-8-4-12.2-.3-1.8-.5-3.6-.3-5.4.1-1 .3-2 .6-3 1.1-1.2 1.2-1.7.3-1.4-1.2-.2-2.3-.3-3.5-.5 1.6.8 2.6 8.7 2.9 10.5.6 4.3.5 8.8-.1 13.1h8.7c-1.1-3.2-1.9-6.5-2.4-9.8-.5-3.2-.2-6.5-1.2-9.6 2.2 6.9 1.8 14.2-.2 21l8.2-1.1c-1.2-2.6-2.2-5.4-2.7-8.3-.3-1.4-.4-2.8-.5-4.2 0-.6-.1-1.2 0-1.8.3-1.4-.4-1.5-2-.4l-2.7-2.1c5.7 9.8-5.7 20.7-15.4 19.3l3.3 4.3c-.1-1.8-.7-4.4-.1-6.1l-2.1 2.7c-1.7 1.1 7.4-.2 3.6-.6-5.2-.5-6 7.5-1.2 8.8s9.2 3.9 14.3 3.3c4.4-.5 7.7-3.1 9.5-7 1.9-4.1 2.3-8.9 1.7-13.4-.3-2.5-.9-4.8-1.9-7-.4-1-.9-2-1.4-3-.3-.6-.7-1.2-1.1-1.8-.4-.9-.6-.7-.4.6l8.4 2.3c.1-1.9.3-3.7.4-5.6l-8.8 1.2c1.7 5 1.4 9.6-.6 14.5-2.2 5.4 6.5 7.7 8.7 2.4 2.5-6.3 2.7-12.9.6-19.3-1.6-4.9-8.5-3.9-8.8 1.2-.1 1.9-.3 3.7-.4 5.6-.3 4.4 6.5 6.3 8.4 2.3 2.2-4.8 1.6-11-3.5-13.7-4.4-2.3-10.3-.3-12.4 4.2-2.9 6.2 3.6 11.7 4.2 17.7.3 2.8.3 8.4-2.8 9.8-3 1.3-8.7-2.2-11.5-3l-1.2 8.8c9.1.8 9.3-11.2 3-15.1-3.1-1.9-7.3-3.4-10.6-1.4-4.1 2.5-2.9 7.5-2.8 11.5.1 1.8 1.3 4.1 3.3 4.3 16 2.3 30.6-10.5 27.5-27.2-.6-3.3-1.9-7-5.6-7.7-3.1-.6-6.2 1.2-7.5 4-3.3 7.1.6 17.6 3.6 24.1 1.7 3.7 7.2 2.4 8.2-1.1 2-6.7 2.6-13.6 1.4-20.5-.9-5.2-2.5-12-9-12.2-14.5-.3-8.5 23.5-6 31 1.3 3.8 7.9 4.7 8.7 0 1.2-7.7 1.1-15.4-.9-23-1.2-4.5-3.6-13.3-10.1-11-5.2 1.9-6.8 9.4-6.8 14.3 0 7.2 2.6 14.3 5.6 20.6 2.1 4.5 8 1.7 8.4-2.3.9-8.4.2-16.9-2.2-25-1.7-5.7-4.8-17.2-12.4-16.9-7.4.2-7.8 9.7-7.8 15.1 0 8.7 2.2 17.1 6 25 2.1 4.4 8 1.7 8.4-2.3.8-7.1.1-14.3-2.1-21.1-1.6-5-4.2-12.2-10.2-12.9-6.6-.7-8.9 6.9-10.4 11.8-2.2 7.2-2.9 14.8-2.6 22.4.3 5.8 9.2 5.8 9 0l-.5-12-8.4 2.3c3.6 7.9 9.1 14.3 15.9 19.5 2.4 1.8 5.9-.2 6.6-2.7 3.8-13 3.3-26.8-1.5-39.5-1.7-4.4-9.2-4.2-8.8 1.2l2.3 36.1 8.4-2.3c-5.2-9.7-1.7-22.6-8.8-31.2-2.3-2.8-6.6-1-7.5 2-3.5 10.7-.1 21.9-2.5 32.7l8.2-1.1-7.1-16c-1.5-3.4-7.6-2.6-8.2 1.1-1.1 7-.6 16.8 5.5 21.6 2.8 2.2 6.5 2.4 10 2.8 4.7.5 9.5.7 14.3.4 4.6-.3 9.1-1 13.6-2 3-.7 7-1.2 9.1-3.6 2.7-2.9 2.2-7.6 2.5-11.3.3-4.4.8-8.7.9-13.1.1-7.2-2.8-13.5-10.2-15.3-3-.7-6.1-.3-9.2-.8-4.8-.7-5.3-4.8-7.9-8.2-3.3-4.4-10.4-7.2-14.9-2.9-2.9 2.8-2.3 6.4-2.2 10 .1 3.2-1.5 11.3-6.6 9.1-6.1-1.4-10.7 6.4-5.4 8.6h0zm-265 49.8c7 6.4 13.6 13.3 19.3 20.9 3.8 5 7.7 15 14.5 16.4 4 .8 7.2-1.3 10.2-3.7l12.2-10.1 12.2-10.1c2.9-2.4 6.2-4.6 6.4-8.7.2-3.9-2.3-6.8-4.6-9.7l-9.7-12.3-9.7-12.3c-2.4-3-4.6-7-8.6-7.9-3.6-.8-6.9 1.3-9.9 2.9-4 2.1-7.9 4.5-11.6 7-7.3 5-14.1 10.7-20.3 17.1-1.9 2-1.7 5.7.9 7.1 6.5 3.3 12.7 7.2 18.3 12 2.5 2.1 4.9 4.4 7.2 6.8l3.3 3.7c.7.8 1.4 1.7 2.1 2.5.9 2.4 2.2 2.3 3.8-.5l1.1 8.2c10.4-6.3 19.9-14.1 28.1-23.1 3.4-3.8-.9-9.6-5.5-7.1-7 3.8-14.2 6.9-21.7 9.3l5.1 6.6c4.2-6.7 9.4-12.5 15.5-17.6-2.4-1.8-4.7-3.6-7.1-5.5-5.5 8.2-12.4 15.4-20.3 21.3l6.6 5.1c2.6-9.4 7.9-17.7 15.8-23.6l-6.2-6.2c-4.5 8.9-10.8 16.5-18.9 22.3h4.5c.3.3.5.7.8 1l.6-2.3c.3-1 .6-2 1-3.1.9-2.7 2.1-5.2 3.4-7.7 2.5-4.7 5.6-8.8 9.3-12.6-2.4-1.8-4.7-3.6-7.1-5.5-5.3 10.9-12.6 20.4-21.8 28.4l7.7 3.2c1.1-11.8 6.2-22.6 14.5-31.1-2.4-1.8-4.7-3.6-7.1-5.5-4.1 8-10.1 14.3-17.9 18.8l6.8 3.9c-.1-3.6.4-7.1 2.1-10.3.7-1.4 1.6-2.7 2.6-3.8 1.6-1.9 4.6-2.4 1.8-4.2-1.3-1.6-2-1.5-2.1.5-.5 1-.9 2-1.4 3-.8 1.5-1.6 2.9-2.4 4.3-.9 1.4-1.8 2.8-2.8 4.1-.8 1-1.5 2-2.4 3-1.4.8-1.5 1.4-.3 1.7l2.1 2.7c-1-3.2 2.3-9.2 3.8-11.9.9-1.5 6.1-10.1 8.4-9.6 1.1.2 2.6 5.8 3 6.8.8 2.2 1.5 4.5 2 6.8s1.1 4.7 1.1 7c0 2.7 0 2.8-2.2.9-6.3-5.4-7-19.1 2.3-22.2 4.7-1.6 6.1 4.4 7.2 7.8l4.7 14.9 7.5-4.4c-5.6-5.5-8.6-12.5-8.8-20.4l-5.7 4.3c10.5 4 12.2 17.2 13.6 26.8.8 5.7 9.5 3.3 8.7-2.4-2-13.6-5.7-27.8-19.9-33.1-2.7-1-5.8 1.6-5.7 4.3.2 10.2 4.2 19.5 11.4 26.7 3.1 3.1 8.9 0 7.5-4.4-1.8-5.7-3.4-11.4-5.4-17-1.4-4-3.2-8.2-6.9-10.6-8-5.3-17.4.7-21.5 8-4.7 8.5-3.5 19.1 2.9 26.3 5.3 5.9 15.6 9.1 18.5-.8 2.6-8.8-1.9-21.8-6.3-29.4-6-10.2-15.9-2.5-21 4.1-2.7 3.5-4.8 7.3-6.3 11.4-1.4 3.8-3.7 10-.9 13.7 6.6 8.6 16.1-6 19-10.8 2.5-4 6.1-9.5 5.5-14.5-.6-4.7-5-6.9-9.2-5.1-9.2 4-13.9 16.3-13.5 25.6.1 3.4 3.7 5.6 6.8 3.9a54.49 54.49 0 0 0 21.1-22c2.3-4.4-3.4-9.2-7.1-5.5-10 10.2-15.8 23.2-17.1 37.4-.4 4.2 5 5.5 7.7 3.2a95.02 95.02 0 0 0 23.2-30.2c2.1-4.4-3.3-9.3-7.1-5.5-5.8 6-10.4 12.9-13.6 20.6-2.1 5.1-6.5 14.8.3 18.3 1.4.7 3.2.9 4.5 0 9.4-6.7 17-15.2 22.2-25.5 1.8-3.6-2.2-9.1-6.2-6.2-9.8 7.4-16.7 17.2-19.9 29-1 3.5 3.3 7.5 6.6 5.1 9.3-6.8 17.1-14.9 23.6-24.5 3-4.5-3.4-8.5-7.1-5.5-6.7 5.5-12.3 12-16.9 19.4-2.1 3.3 1.4 7.8 5.1 6.6 8.3-2.6 16.3-6 23.9-10.2-1.8-2.4-3.6-4.7-5.5-7.1-7.7 8.5-16.5 15.8-26.3 21.7-3.6 2.2-2.4 6.8 1.1 8.2 4.2 1.7 8.7-1.7 8.9-6 .3-5.2-5.1-10.1-8.3-13.5-8.1-8.8-17.8-16-28.4-21.3l.9 7.1c4.7-4.8 9.7-9.2 15-13.2 4.8-3.6 10.8-8.4 16.5-10.3 1.7-.6 1.6-.9 3 .5s2.5 3.1 3.6 4.6l6.7 8.5 7.3 9.3c1.3 1.7 6.6 6.8 6.2 8.7-.4 2.2-5.9 5.4-7.7 6.9l-8.4 6.9-8.4 6.9c-1.2 1-3.8 3.9-5.9 2.8-.8-.4-2.2-3.4-2.7-4.1-7.3-11-16-20.9-25.7-29.8-4-3.5-10.4 2.8-6.1 6.7h0z"/><path d="M275.5 466.1c3.6 7 26.2 46 35.8 32.7 3.4-4.7-4.4-9.2-7.8-4.5-.2.2-.3.5-.5.7 1.3-.7 2.6-1.5 3.9-2.2-1.7.2-5.8-5.5-6.9-6.8-2.2-2.5-4.4-5-6.4-7.7-3.9-5.3-7.3-10.9-10.3-16.7-2.6-5.2-10.4-.6-7.8 4.5h0z"/></g><g class="Y"><path d="M454.4 342.6c-10.7-7.8-14.8-23.8-8.1-35.5 3.3-5.8 9.3-10.5 16.3-9.7 7.2.8 10.7 6 11.2 12.8.3 3.8-.1 7.7-.2 11.5-.2 3.6.2 7.8-.8 11.3s-4.6 5.4-6 8.9c-1.2 3 .1 5.6-3.4 6.6-1 .3-2.4.2-3.3.5-1.6-.2-1.6.1 0 .8-.4-1.3-.7-2.5-1.1-3.8l-3.9-13.3c-2.2-7.4-6.8-18.3-1-25.2l-7.3.9c3.5 2.6 2.2 13.2 2.4 16.8l.9 22.5c.3 7.9 11.2 7.6 12 0 .8-7.9-.3-15.7-.6-23.7-.2-3.4-.2-6.9.3-10.3.2-1.7.6-3.3 1.1-4.9.3-1.1.8-2.2 1.3-3.2 1.1-1.7 1.1-1.9.1-.6l-4.6.6c-.3-.1 1.1 3.6 1.3 4.4.4 1.5.6 3.1.8 4.6.4 4.2.4 8.5.2 12.7-.1 1.9-.3 3.8-.6 5.8l-.6 3.6c-1 2.4.7 3 5.1 1.5.4-.8-.7-4-.8-4.9-.2-2.1-.3-4.3-.2-6.4.1-4.1.6-8 1.6-12a45.95 45.95 0 0 1 1-3.5c1.5-2.6-.1-3.5-4.8-2.6-.4.7 1.2 4.5 1.4 5.2.9 4.2 1.1 8.5.7 12.8-.2 2-.4 8.5-2.7 9-7.5 1.8-4.3 13.4 3.2 11.6 7.9-1.9 10.1-9.9 11.1-17 1.1-8.4.7-17.9-2.5-25.8-3.1-7.6-12.2-7.7-16.2-.7s-4.9 16.9-4.8 24.8c.1 6.4.2 17.4 7.9 19.7 8.5 2.5 11.5-6.7 12.4-13.1 1.2-8.4 1.5-17 .1-25.4-1-6.2-5-18.1-13.5-15.8-8.2 2.1-9.8 16.4-10.2 23.2-.5 10.2 1.7 20.3.7 30.5h12l-1.3-30.3c-.3-7.7-1.5-14.5-8-19.3-1.9-1.5-5.7-.9-7.3.9-6.6 7.8-7.1 17.4-4.8 27 1.2 5.2 2.9 10.4 4.4 15.5 1.4 4.8 2.2 10.6 4.8 14.8 4.1 6.8 15.5 5.2 21.4 1.7 3.1-1.8 5.2-4.8 6-8.3.5-2.2.3-3.1 1.7-4.9 1.6-2 3.2-3.6 4.2-6 1.7-3.8 1.8-8 2-12 .2-5 .7-10.1.6-15.2-.2-8.9-3.1-17.3-10.8-22.4-14.8-9.8-33.4-.7-40.4 14.1-8.2 17.5-1.6 38.2 13.7 49.4 6.1 4.7 12.1-5.7 5.9-10.2h0z"/><path d="M453.8 369.1c2 3.2 5.6 4.4 9.2 3.3 1.6-.5 3-1.4 4.2-2.5.3-.3.7-.6 1-1 .3-.3.2-.3-.2.1 1.9-1 .4-1.3-4.4-1.1 2.4 2 6.2 2.5 8.5 0 2.1-2.2 2.5-6.3 0-8.5-2.9-2.5-6.6-2.9-10-.9-1.1.6-2.2 1.5-3 2.5-.7.9.9-.6-.2.2.2-.1.4-.2.6-.2-2.1.5-.6 1.2 4.5 2.1-1.7-2.7-5.4-4-8.2-2.2-2.5 1.7-3.8 5.4-2 8.2h0z"/><path d="M456.6 377v.9c0 1.5.7 3.2 1.8 4.2 1 1 2.7 1.8 4.2 1.8 1.6-.1 3.2-.6 4.2-1.8 1.1-1.2 1.8-2.6 1.8-4.2v-.9c0-1.5-.7-3.2-1.8-4.2-1-1-2.7-1.8-4.2-1.8-1.6.1-3.2.6-4.2 1.8-1.1 1.1-1.8 2.5-1.8 4.2h0zm-59.4-110.6c26.3-31.3 51.5-63.5 75.7-96.6-2.3.9-4.5 1.8-6.8 2.8 2.3.7 4 1.9 5.7 3.6l-.9-7.3-69.2 98.9 8.2-2.2-6-3.7 2.2 8.2c10.5-13.7 20.1-27.9 28.8-42.8 3.9-6.7-6.5-12.7-10.4-6.1a421.32 421.32 0 0 1-28.8 42.8c-2 2.6-.3 6.7 2.2 8.2l6 3.7c2.9 1.8 6.4.5 8.2-2.2l69.2-98.9c1.5-2.2.8-5.5-.9-7.3-3.1-3.2-6.8-5.4-11-6.7-2.7-.9-5.2.6-6.8 2.8-23.5 32.2-48.1 63.6-73.8 94.1-5 6.1 3.5 14.7 8.4 8.7h0zm-67.3 340v-.9c0-7.7-12-7.7-12 0v.9c0 7.8 12 7.8 12 0v-.9c0-7.7-12-7.7-12 0v.9c0 7.8 12 7.8 12 0h0zm-95.8-83.7c7.7 0 7.7-12 0-12s-7.7 12 0 12h0z"/></g><path d="M261.2 528c5.8 0 5.8-9 0-9s-5.8 9 0 9h0zm367.5-228.6c5.8 0 5.8-9 0-9s-5.8 9 0 9h0zm56.4 136v1.7c0 1.2.5 2.4 1.3 3.2s2.1 1.4 3.2 1.3c1.2-.1 2.4-.4 3.2-1.3s1.3-2 1.3-3.2v-1.7c0-1.2-.5-2.4-1.3-3.2s-2.1-1.4-3.2-1.3c-1.2.1-2.4.4-3.2 1.3s-1.3 2-1.3 3.2h0z" class="a"/><g class="T"><path d="M648.8 364c17 2.7 40.8 10.6 34.5 32.8-2.9 10.2-10.9 17.5-18.8 24-7.8 6.3-15.5 12.5-22.6 19.6-6.8 6.8-13 14.2-18.7 22-4.5 6.2-10.7 13.9-10 22.2.6 7.4 7.1 9.2 13 11.5 8.5 3.3 17.5 9.1 20.8 18 4.4 12-4.8 22.6-13.5 29.7-7.8 6.4-16.3 11.9-21.6 20.7-1 1.7 1.6 3.2 2.6 1.5 9.5-16 33.7-22.4 36.4-42.6 1.1-7.9-2.5-15.3-8.2-20.6-2.8-2.7-6.1-4.9-9.5-6.8-4.1-2.2-8.9-3.1-12.9-5.4-11.2-6.5 2.8-23.1 7.6-29.4 6.9-9.1 14.6-17.5 23.1-25.1 13.6-12.4 34.9-23.4 36.4-44.1 1.5-21-21-28.1-37.6-30.7-2.1-.5-2.9 2.4-1 2.7h0zm-295.4-3.2c-17.8 21.9-37.9 41.8-60.1 59.2-21.8 17.1-45.5 30.7-69.6 44.2-22.2 12.5-44.6 25.3-63.6 42.6-8.5 7.7-17.9 16.7-22.7 27.4-3.7 8.3-4 19.1 5.5 23.4 5.2 2.3 11.3 1.5 16.7.6 8.8-1.5 17.5-3.4 26.2-5.1l26.7-5.2c8.5-1.6 24.4-3.1 24.8 9.6.1 1.9 3.1 1.9 3 0-.4-11.8-13-14.8-22.7-13.6-14.8 1.9-29.4 5.6-44.1 8.4-10.3 2-37.8 10.3-35.8-9.4 1.3-12.7 13.3-23.7 22-32 18.4-17.4 40.5-30.3 62.5-42.7 23.1-13 46.1-25.8 67.3-41.8 24.4-18.5 46.5-39.9 65.8-63.6 1.4-1.4-.7-3.5-1.9-2h0zM194.3 566.2c-8.8 10.6-19.1 23.1-17.5 37.8 1.2 11.3 9.3 21.9 21.5 21.1 7.8-.5 14.7-4.8 21.5-8.1 8.5-4.1 17.2-7.8 26.2-10.5 8.9-2.6 18.2-4.3 27.5-4.5 7.4-.1 15.8.4 22 5 9.4 6.8 3.6 17-1.4 24.6-4.9 7.3-9.2 14.8-13 22.7-3.4 7.2-6.4 14.7-8.8 22.3-1.8 5.7-3.9 12.4.5 17.4 9.4 10.9 23.7 1.6 31.6-5.8 12.1-11.3 25.2-20.7 40.3-27.7 16.9-7.8 35.3-12.4 53.8-13.4 9.4-.5 18.9-.2 28.2 1.3 8.3 1.3 17.6 3.9 21.5 12.2.8 1.7 3.4.2 2.6-1.5-5.4-11.7-20.2-13.5-31.6-14.6-14.9-1.4-30.1-.3-44.7 2.9s-28.9 8.6-41.9 16c-6.4 3.6-12.4 7.7-18.2 12.2-6.5 5.1-12 11.4-18.6 16.1-5.9 4.2-18.5 7.3-22-1.9-1.7-4.5.5-9.7 1.9-14.1a156.13 156.13 0 0 1 5.1-13.5c3.3-7.8 7.2-15.3 11.6-22.5 3.9-6.3 9.7-12.7 11.1-20.2 2.3-12.2-9.7-18.5-20-20-15.3-2.1-31.5 1.4-45.9 6.6-8.8 3.2-17.1 7.3-25.5 11.4-8.7 4.3-19.5 7.6-26.9-.9-13.8-15.8.7-35.7 11.2-48.4 1.3-1.4-.8-3.5-2.1-2h0zm57.5 50.6c9.4-3 17.7 6.2 17.9 15.1.2 9.4-6 17.5-12.2 23.9-1.4 1.4.8 3.5 2.1 2.1 7.6-7.8 15.5-18.9 12.5-30.5-2.4-9.1-11.6-16.5-21.1-13.5-1.8.6-1.1 3.5.8 2.9h0zm349.3-258c4.6 3.8 10 4.6 15.7 5.8 6.2 1.3 11.6 3.7 15.9 8.5 8.1 9.1 10.6 22.8 4.6 33.6-.9 1.7 1.6 3.2 2.6 1.5 5.8-10.4 4.6-23.2-1.8-33-3-4.6-7.2-8.6-12.3-11-7.2-3.4-16.2-2.3-22.6-7.5-1.5-1.2-3.6.9-2.1 2.1h0zm-366.7 213c5.7 15.3 23.8 11.4 34.9 5.4 7.1-3.8 13.7-8.7 19.5-14.3 6.2-6.1 11.2-13.3 17.3-19.5 6.7-6.8 16.1-13 26.2-11.3 9.1 1.5 14.6 9.6 20.4 15.8 7.6 8 22.9 16.2 30.6 3.5 1-1.7-1.6-3.2-2.6-1.5-4.9 8-15.3 5.2-21.3.4-5.4-4.4-9.3-10.4-14.6-14.9-10-8.6-22.5-7.8-33.1-.6-11.7 7.9-18.8 21-29.5 30.1-6.3 5.3-13.6 10.2-21.4 13.1-8.3 3.1-19.9 2.9-23.5-6.9-.7-1.9-3.6-1.1-2.9.7h0zm25-93.2c12.8 11.1 23.5 24.3 31.8 39.1.9 1.7 3.5.2 2.6-1.5-8.4-15.1-19.2-28.4-32.3-39.7-1.4-1.3-3.6.9-2.1 2.1h0zm2.6-3.2c10.8-14.3 26.1-28.9 43.1-35.4 2.7-1 5.8-1.9 8.7-1.2 3.6.8 5.7 3.9 7.8 6.7 3 3.9 5.9 7.9 8.8 11.9 5.7 8 11.1 16.3 16.2 24.7 1 1.6 3.6.1 2.6-1.5-6.4-10.5-13.3-20.8-20.6-30.7-5.5-7.5-10.5-16.3-21.2-13.8-9.3 2.2-18.2 9-25.5 14.7-8.5 6.7-16 14.5-22.6 23.1-1 1.5 1.6 3 2.7 1.5h0z"/><path d="M293 519c20.4-8.6 38.6-21.2 53.7-37.4 1.3-1.4-.8-3.5-2.1-2.1-14.7 15.8-32.5 28.3-52.4 36.6-1.8.8-1 3.7.8 2.9h0zm-19.4-41.6c11.4-10.3 24.1-18.8 38.1-25.3 1.7-.8.2-3.4-1.5-2.6-14.2 6.6-27.1 15.3-38.7 25.8-1.5 1.2.7 3.4 2.1 2.1h0zm8.3 5l18.6-13.4c1.6-1.1.1-3.7-1.5-2.6l-18.6 13.4c-1.6 1.2-.1 3.8 1.5 2.6h0zm4.2 6.9l31.2-22c1.6-1.1.1-3.7-1.5-2.6l-31.2 22c-1.6 1.1-.1 3.7 1.5 2.6h0zm8.8 8.2c6.4-5.2 13.1-9.8 20.1-14.1 1.7-1 .1-3.6-1.5-2.6-7.3 4.3-14.2 9.2-20.7 14.5-1.5 1.3.6 3.4 2.1 2.2h0zm4.6 8.2c9.4-7.7 19.6-14.1 30.5-19.4 1.7-.8.2-3.4-1.5-2.6-11.2 5.4-21.5 12.1-31.1 19.9-1.5 1.2.6 3.3 2.1 2.1h0zm205.6 62.8c4.9-6.2-.9-13.8-7.4-15.6-7.8-2.2-16.7 1.5-20.6 8.5-4.4 7.8-2.6 18 3.1 24.6 7.3 8.6 26.3 13.8 22.9 28-.5 1.9 2.4 2.7 2.9.8 3.9-16.2-15.6-21.2-23.7-30.9-5.7-6.9-6.7-18.5.5-24.8 2.9-2.5 7-4 10.8-3.8 4.5.2 14.2 5.1 9.5 11.2-1.3 1.4.8 3.5 2 2h0z"/><path d="M506.7 567.9c.8-5.4 3.3-10.2 7.3-13.9 1.9-1.8 4.1-3.2 6.5-4.3 1.2-.5 2.5-1 3.8-1.3 2.8-.6 3.4-.6 5.7 1.4 2.3 2.1 2.4 2.7 2.3 5.6 0 1.1-.2 2.2-.3 3.2-.3 2-.9 3.9-1.6 5.8-1.5 4.1-3.8 7.9-6.2 11.5-8.6 12.8-20.9 24.5-21.6 40.8-.1 1.9 2.9 1.9 3 0 .9-21.9 23.6-34.5 28.8-54.9 1-3.9 1.8-8.9.1-12.7-2.1-4.4-6.7-4.6-10.9-3.6-10.2 2.4-18 11.3-19.6 21.6-.5 1.9 2.4 2.8 2.7.8h0zm17-151c-1.8 9.7-2.2 19.9 0 29.6 2.1 9.3 8.8 7.3 16.5 7.8 17.5 1.2 40.7 12.3 52.2-7.5 1-1.7-1.6-3.2-2.6-1.5-9.8 16.9-30.4 8.6-45.4 6.5-3.5-.5-6.8-.5-10.3-.4-5.4 0-7-2.6-7.8-7.4-1.5-8.7-1.3-17.5.4-26.2.2-2-2.7-2.8-3-.9h0z"/><path d="M524.1 421.7c5.4-3.3 10.1-3.9 16.2-4.9 2.6-.4 4.3-1.4 4.7-4.1 1.1-6.8-1.8-13.8 3.6-19.6 6-6.5 14.1-.7 16.6 5.9 1.2 3.1 1.9 6.7 4.3 9.2 3.1 3.3 7.2 2.4 11.1 3.5 15.1 4.1 10.6 23.6 7.4 34.1-.6 1.8 2.3 2.6 2.9.8 3.4-10.9 6.8-24.5-2.3-33.6-1.5-1.5-3.2-2.7-5.1-3.5-2.9-1.2-6.1-.6-9.1-1.7-5.8-2.1-5.7-10.7-9.2-15.1-6.3-7.8-17.1-6.7-21.4 2.4-1.2 2.5-1.6 5.1-1.8 7.8-.2 3.2 1.3 9.6-2.1 10.9-2.4 1-6.1.6-8.7 1.4-3.1.9-5.9 2.3-8.6 3.9-1.6 1.1-.1 3.7 1.5 2.6h0z"/><path d="M536 418.6c-1.5 11.8.5 23.5 5.7 34.2.8 1.7 3.4.2 2.6-1.5-5-10.2-6.8-21.4-5.3-32.7.3-1.9-2.7-1.9-3 0h0zm-96.2-66.5c-12.9-6-20.6-19.9-19.9-34.1.8-14.5 10.6-27.7 23.1-34.6 7.8-4.3 16.1-5.6 24-1 7.2 4.1 12.3 11.2 15.2 18.8 5.2 13.8 3.3 29.5-4.9 41.8-1.1 1.6 1.5 3.1 2.6 1.5 13.6-20.3 10.5-55.6-14.4-66.1-12.5-5.3-25.8 1.8-34.8 10.6-8.8 8.6-14.5 20.9-13.8 33.3.8 13.7 8.8 26.6 21.3 32.5 1.8.7 3.3-1.9 1.6-2.7h0zm-1.4 3.6c-2.6 2.8-1.9 7.1 1.3 9.2 5.2 3.4 14.2.3 19.7-1 5.9-1.4 14.8-2.7 18.8-7.9 2.4-3.2 2.4-7.6-.7-10.3-1.5-1.2-3.6.9-2.1 2.1 4.6 3.9-1.4 8.4-5 9.8-3 1.1-6.1 2-9.2 2.8-2.9.7-5.8 1.4-8.7 1.9-1.8.3-3.8.8-5.6.9-2.6.1-10.1-1.3-6.3-5.3 1.3-1.5-.8-3.6-2.2-2.2h0z"/><path d="M444.2 366.4c.4 5.9 5.4 9.7 11.2 10.1 8 .5 14-6.2 18.7-11.7 1.2-1.5-.9-3.6-2.1-2.1-3.3 3.9-7 8.4-11.9 10.1-5 1.8-12.4-.2-12.8-6.4-.2-1.9-3.2-1.9-3.1 0h0zm8.1 11.2c-.8 4.1 1.7 8.4 6 9.1 4.4.7 8.2-3.2 8.3-7.4 0-1.9-3-1.9-3 0 0 2.5-2.4 5-5.1 4.4-2.3-.5-3.8-3.1-3.3-5.3.4-1.9-2.5-2.7-2.9-.8h0zm-20.5-63.3c8.6 5.5 15.2 13.2 19.4 22.5.8 1.8 3.4.2 2.6-1.5-4.4-9.8-11.4-17.8-20.5-23.6-1.7-1-3.2 1.6-1.5 2.6h0z"/><path d="M447.2 307l5.8 43.1c.3 1.9 3.1 1.1 2.9-.8l-5.8-43.1c-.3-1.9-3.1-1.1-2.9.8h0z"/><path d="M452.4 331.5c2.6-9.4 8.6-17 17.1-21.8 1.7-.9.2-3.5-1.5-2.6-9.1 5.1-15.7 13.5-18.5 23.6-.5 1.9 2.4 2.7 2.9.8h0zm-109 257.1c4 8.7 8.3 17.3 13.1 25.6 2.4 4.1 5.6 11.9 11.5 9.4 1.8-.8.2-3.3-1.5-2.6-3.8 1.6-10.6-13.9-11.9-16.4-3.1-5.7-5.9-11.6-8.6-17.5-.8-1.8-3.4-.3-2.6 1.5h0z"/><path d="M346.1 590.4l25.4-19.8c7.5-5.7 15.6-11.2 24.8-13.8 9.9-2.9 18.5-.6 25.1 7.4 5.6 6.8 9 15.2 12.8 23 .8 1.7 3.4.2 2.6-1.5-7.3-15-15.9-36.2-36.4-32.9-10.2 1.6-19.4 7.2-27.7 13.2-9.8 7.2-19.2 14.9-28.8 22.4-1.4 1.1.7 3.2 2.2 2h0z"/><path d="M363.9 623.9c26.1-5.7 50.3-17.9 70.6-35.3 1.5-1.3-.7-3.4-2.1-2.1-19.9 17.1-43.7 28.9-69.3 34.6-1.9.4-1.1 3.3.8 2.8h0zm24.3-28.2c-5.3-1.3-9.7-6.5-8.4-12.2 1.2-5.5 7.9-9.5 13.2-6.9 10.7 5.4 3.4 20.8-7.6 16.9-1.8-.6-2.6 2.3-.8 2.9 6.2 2.2 13.7-.8 16.1-7.1 2.4-6.2-1.5-13.7-7.6-15.9-6.6-2.4-14.1 2.1-16 8.7-2.2 7.4 3.2 14.7 10.3 16.5 1.9.5 2.7-2.4.8-2.9h0zm53.3-75.9c-1.2-10.7-1.3-22.9 11.4-25.8 6.4-1.5 11.7-3.4 15.4-9.3 3.8-6 3.3-11.6 1.8-18.2-1.1-5.2-1-9.7 3.2-13.6 3.4-3.1 7.9-4.3 12.3-2.9 1.8.6 2.6-2.3.8-2.9-6.4-2-13.1.5-17.2 5.8-6.3 8.3 1.1 16.7-1.4 25.6-1.5 5.3-5.6 9.8-10.9 11.6-4.3 1.4-8.9 1.3-12.5 4.3-7.6 6.2-6.9 16.7-5.9 25.4.2 1.9 3.2 1.9 3 0h0zm-24.4-56c-3.1-2.5-.6-8.1 3.4-6 1.6.8 2.6 2.7 1.7 4.4s-3.2 2.6-4.9 1.7-3.2 1.7-1.5 2.6c3.1 1.5 6.9.4 8.8-2.4 2-3 .7-6.8-2.2-8.6s-6.8-1.3-8.7 1.7c-1.7 2.8-1.3 6.7 1.3 8.8 1.5 1.1 3.6-1 2.1-2.2h0zm136.8-155c-1.8-2.9-2.9-6.6-1.8-9.9.9-2.8 3.7-4.5 6.6-4.2 3.2.3 4.9 3.3 3.2 6.1-1.5 2.6-4.6 3.9-7.5 3.5-1.9-.2-1.9 2.8 0 3 4.3.5 9-2.1 10.6-6.2 1.5-3.7-.4-7.8-4.2-9-3.6-1.2-8 .2-10.2 3.3-3.3 4.5-2 10.6.7 15.1 1 1.4 3.6-.1 2.6-1.7h0zM392.6 431.4a27.08 27.08 0 0 0 27.5 13.7c13.6-2 20.9-12.4 26.3-24 6.3-13.4 15-24.4 28.9-30.3 12.6-5.3 28.9-2.6 39.3-12.5 4-3.8 6.7-9.1 5.8-14.7-.7-4.3-3.3-7.9-2.3-12.4 1.2-4.9 5-8.5 9.8-9.5 1.9-.4 1.1-3.3-.8-2.9-5.8 1.3-10.5 5.7-11.9 11.6-.8 3.2-.2 6.1.8 9.2 1.6 5 2.2 9.1-1.1 13.7-5.8 8.1-16 9.2-25.1 10.5-8.1 1.2-15.7 3.4-22.7 7.6-6.2 3.7-11.7 8.7-16 14.5-4.7 6.4-7.3 13.9-11.1 20.8-4.8 8.5-12.7 15-22.8 15.6-9.2.5-17.8-4.4-22.3-12.5-.6-1.6-3.2-.1-2.3 1.6h0zm-20.9-164l-5 37.5c-.3 1.9 2.6 2.7 2.9.8l5-37.5c.3-1.9-2.6-2.7-2.9-.8h0z"/><path d="M371.2 306.6l35.4-25.5c1.6-1.1.1-3.7-1.5-2.6L369.7 304c-1.6 1.1-.1 3.7 1.5 2.6h0zm2.4-37.5L460.9 149c1.1-1.6-1.5-3.1-2.6-1.5L371 267.6c-1.1 1.5 1.5 3 2.6 1.5h0z"/><path d="M410.3 276.6c27.2-36 53.6-72.6 79.2-109.8 1.1-1.6-1.5-3.1-2.6-1.5-25.6 37.1-52 73.8-79.2 109.8-1.2 1.5 1.4 3 2.6 1.5h0zM460 149c4.7-8.8 10.2-19.5 20.6-22.4 10.3-2.9 20.4 4.9 20.6 15.6 0 1.9 3 1.9 3 0-.1-10.3-8.8-19.6-19.4-19.3-13.9.4-21.7 13.7-27.4 24.6-.9 1.7 1.7 3.2 2.6 1.5h0z"/><path d="M490.1 166.5c5.1-7.6 9.7-15.4 13.8-23.6.9-1.7-1.7-3.2-2.6-1.5-4.1 8.2-8.7 16-13.8 23.6-1 1.5 1.6 3.1 2.6 1.5h0z"/><path d="M457.8 153.9c11.5-7.8 26.4-3.6 32.1 9 .8 1.8 3.4.2 2.6-1.5-6.4-14.1-23.5-18.8-36.2-10.1-1.6 1.1-.1 3.7 1.5 2.6h0zm-5.3 9c10-6.4 24.7-2.2 29.3 9 .7 1.8 3.6 1 2.9-.8-5.4-12.8-21.9-18.3-33.7-10.8-1.6 1.1-.1 3.7 1.5 2.6h0zm-80.7 107.6c5.5 3.3 11-3.9 16.7-3.8 4.3.1 8.3 2.1 10.8 5.7 1.8 2.6 2.7 5.1 5.6 6.6 1.7.9 3.2-1.7 1.5-2.6-3.4-1.8-4.4-6.2-7.3-8.7a16.54 16.54 0 0 0-7-3.5c-2.6-.6-5.3-.6-7.8 0-3.2.8-7.9 5.5-10.9 3.7-1.7-1-3.2 1.6-1.6 2.6h0z"/><path d="M388.2 265.1l60.7-79.9c1.2-1.5-1.4-3-2.6-1.5l-60.7 79.9c-1.1 1.5 1.5 3 2.6 1.5h0zm31.7-20a1166.96 1166.96 0 0 1 59.8-80.2c1.2-1.5-.9-3.6-2.1-2.1-21.2 26.1-41.4 53-60.3 80.8-1 1.6 1.6 3.1 2.6 1.5h0zm-49.3 52c1.9-1.6 4.7 0 4.2 2.5-.4 1.9 2.5 2.7 2.9.8.5-2.4-.4-4.9-2.6-6.2s-4.8-.8-6.7.8c-1.4 1.2.7 3.3 2.2 2.1h0z"/><path d="M371.5 296.7c-.5 2.1-1.4 4-2.7 5.7l2.5 1.5c.6-2.2 1.8-4.1 3.5-5.7l-2.4-.3a2.24 2.24 0 0 1-.9 2.9l2.2.9c-.4-1.4-.1-2.7.8-3.8-.6.1-1.2.2-1.8.2.8.4.7 1.5-.1 1.9.6.1 1.2.2 1.8.2-.6-.5-1.1-1.1-1.4-1.8l-.3-1c0-.2-.2-2.3-.5-1.7-.9 1.7 1.7 3.2 2.6 1.5 1.4-2.6-2.2-4.9-4.2-2.8-2.1 2.3-.2 6.1 1.8 7.8.5.5 1.2.6 1.8.2 2.8-1.4 2.8-5.6.1-7.1-.5-.3-1.4-.3-1.8.2-1.6 1.9-2.2 4.3-1.6 6.7.2.9 1.4 1.4 2.2.9 2.5-1.5 3.2-4.5 2-7-.4-.9-1.7-.9-2.4-.3-2.1 1.9-3.5 4.3-4.2 7-.4 1.3 1.5 2.7 2.5 1.5 1.6-2.1 2.8-4.4 3.5-7 .4-1.7-2.5-2.5-3-.6h0zm-5.6 15.7c-2 10.8-6.5 20.7-13.6 29.1-1.2 1.5.9 3.6 2.1 2.1 7.4-8.9 12.3-19.1 14.4-30.5.3-1.8-2.6-2.6-2.9-.7h0zM345 324.9c-10.4 7.7-21.4 14.6-32.8 20.7-1.7.9-.2 3.5 1.5 2.6 11.4-6.1 22.4-13 32.8-20.7 1.6-1.2.1-3.8-1.5-2.6h0zm244.1 228.6c-2.7-4.2-7.2-2-9.6 1.2-2.6 3.3-4.7 7.2-6.9 10.8-1.7 2.8-3.7 5.9-4 9.4-.6 7 4.7 7.8 10 9.5 6.3 2.1 5.9 9.5 1.9 13.6-3.2 3.3-7.9 4.7-12.1 6.1-1.8.6-1 3.5.8 2.9 8.4-2.7 20.9-8.8 16.6-20-.7-1.8-1.9-3.3-3.5-4.3-.9-.5-1.9-.9-2.9-1.2-2.9-.9-3.7-.6-6-3.1-1.9-1.1-2.5-2.6-1.6-4.6.4-1.4.9-2.7 1.6-3.9.8-1.6 1.8-3.1 2.8-4.6s8-14.1 10.3-10.4c1 1.7 3.6.2 2.6-1.4h0zM417.4 671.2c8.2-2.1 15.2 6 11.6 13.8-.8 1.7 1.8 3.3 2.6 1.5 4.7-10.1-4-21-14.9-18.2-2 .5-1.2 3.4.7 2.9h0zm153.2-164.7c-3.8-2.8-3.8-10.1 2-10.3 2.1-.1 4.3 1.1 4.2 3.4 0 1.9-1.7 4.2-3.8 3.9-1.9-.3-2.7 2.6-.8 2.9 3.7.6 6.9-2.1 7.5-5.7.7-3.7-2-6.9-5.6-7.4-3.7-.6-7.5 1.5-8.8 5.1-1.3 4 .5 8.3 3.8 10.7 1.5 1.1 3-1.5 1.5-2.6h0zm-418-12.4c1.4-5.6 6.2-8.8 10.7-11.9l14.3-10 28.5-20c1.6-1.1.1-3.7-1.5-2.6l-33.3 23.3c-7.5 5.2-19.2 10.7-21.6 20.4-.5 1.9 2.4 2.7 2.9.8h0z"/></g><path d="M823.5 1019.8L459 957.4l221.4-89.3 346.1 77.1-203 74.6z" class="U V W X"/><g class="T"><path d="M818.5 1021.3l1.1 3.7c.5 1.6 2.9 1.3 2.9-.4v-2.9c0-1.9-3-1.9-3 0 0 1.2-.2 2.3-.7 3.4h2.9c-.4-1.3-.5-2.5-.2-3.9l-2.7.4c.3.3.3.5.1.8l2.7.4a2.14 2.14 0 0 1 .3-1.9l-2.8-.8-.6 4.7c-.1.8.8 1.5 1.5 1.5.9 0 1.4-.7 1.5-1.5l.6-4.7c.2-1.5-2.1-1.9-2.8-.8-.8 1.3-1 2.8-.6 4.3.3 1.3 2.1 1.4 2.7.4.8-1.2.8-2.7-.1-3.8-.7-.9-2.5-1-2.7.4-.4 1.8-.3 3.7.2 5.5.5 1.5 2.4 1.3 2.9 0 .5-1.4.8-2.8.8-4.2h-3v2.9l2.9-.4-1.1-3.7c-.4-2.1-3.3-1.3-2.8.6h0z"/><path d="M820.8 1028.5c16.1-8.3 33.7-12.7 51-17.6 8.5-2.4 16.9-5 25-8.4 7.8-3.2 15.3-7.2 23-10.8 17.1-8 35.6-13.2 53.5-19.1l55.7-18.5c1.8-.6 1-3.5-.8-2.9l-55.7 18.5c-17.6 5.8-35.7 11-52.6 18.7-8.8 4-17.4 8.7-26.4 12.2-8.2 3.2-16.6 5.7-25.1 8.1-16.7 4.8-33.6 9.2-49.2 17.2-1.6.9-.1 3.5 1.6 2.6h0z"/><path d="M822.2 1027.9l206.9-72.7c5.4-1.9 3.1-10.6-2.4-8.7l-206.9 72.7c-5.4 1.9-3.1 10.6 2.4 8.7h0zm-7.8-96.6c13 1.3 24.1 9.2 36.9 11.7 1.9.4 2.7-2.5.8-2.9-13-2.6-24.3-10.5-37.7-11.8-1.9-.1-1.9 2.9 0 3h0z"/><path d="M852.2 941.6c7.9-4.3 15.3-9.4 22-15.4 1.4-1.3-.7-3.4-2.1-2.1-6.6 5.8-13.7 10.8-21.4 14.9-1.7 1-.2 3.6 1.5 2.6h0zm-34.7-16c6.3-4.5 12.8-8.8 19.5-12.8 1.7-1 .1-3.6-1.5-2.6-6.7 4-13.2 8.2-19.5 12.8-1.6 1.2-.1 3.8 1.5 2.6h0z"/><path d="M837.5 913.3l34.3 12.8c1.8.7 2.6-2.2.8-2.9l-34.3-12.8c-1.8-.6-2.6 2.3-.8 2.9h0zm-32.1 29.4c30.1 9.3 59.8 20 88.9 32.1 1.8.7 2.6-2.2.8-2.9-29.1-12.1-58.8-22.8-88.9-32.1-1.9-.6-2.7 2.3-.8 2.9h0zm2.9 23.3c18.7 9 37.6 17.5 56.7 25.8 1.8.8 3.3-1.8 1.5-2.6-19.1-8.2-38-16.8-56.7-25.8-1.7-.8-3.2 1.8-1.5 2.6h0zm2.7 25.7l30.6 15.7c1.7.9 3.2-1.7 1.5-2.6l-30.6-15.7c-1.7-.9-3.2 1.7-1.5 2.6h0z"/><path d="M816.8 992.6c14.1-12 28.9-23 44.3-33.2 1.6-1.1.1-3.7-1.5-2.6-15.6 10.3-30.6 21.6-44.9 33.7-1.5 1.3.6 3.4 2.1 2.1h0zm-3.7-20.5l24-16.9c1.6-1.1.1-3.7-1.5-2.6l-24 16.9c-1.5 1.1 0 3.7 1.5 2.6h0z"/></g><path d="M818.1 1026.7L441 962.5l-35.5-267.8 405.8 54.7 6.8 277.3z" class="U V W X"/><g class="T"><path d="M594.1 872.2c-10.9-3.4-16.8-12.6-17.7-23.7-.9-11.3 1.3-22.2 11.8-28.1 9.3-5.2 20.4-3.7 28.7 2.6s15.7 19.2 9 29.1c-1.1 1.6 1.5 3.1 2.6 1.5 7.2-10.6.4-24.6-8.4-31.9-9.1-7.5-21.4-9.8-32.1-4.5-12.4 6.1-15.6 18.5-14.6 31.4 1 12.5 7.6 22.8 19.9 26.6 1.8.5 2.6-2.4.8-3h0z"/><path d="M596.9 873.3c-4.6-7.6-3.1-18.2 4.3-23.5s18-3.1 23.6 3.7c1.2 1.5 3.3-.6 2.1-2.1-6.6-7.9-19-10.1-27.6-4-8.6 6.2-10.4 18.6-5 27.4 1 1.6 3.6.1 2.6-1.5h0zm10.3 4.2c-4.7-5-4-14.3 2.3-17.9 6.2-3.6 14.6.5 16.6 7.1.6 1.8 3.5 1.1 2.9-.8-2.6-8.4-13.1-13.4-21-8.8s-8.9 16.2-2.9 22.6c1.3 1.3 3.4-.8 2.1-2.2h0zm7.7 7c3.9 1.4 8.4-.9 9.9-4.6 1.6-3.7-.5-7.7-4-9.3s-7.7-.7-9.6 2.7c-1.8 3.3-1.2 7.8 1.8 10.2 1.5 1.2 3.6-.9 2.1-2.1-4-3.1-1.2-10.4 4.1-8.2 2.3.9 3.9 3.3 2.8 5.8-1.1 2.4-3.9 3.6-6.3 2.7-1.8-.7-2.6 2.2-.8 2.8h0z"/></g><path d="M811.3 749.3l8.8 275.5m-8.2-275.7l8.1 271.8" fill="none" class="V W X"/><g class="Z"><path d="M638.8 730.7c6.5 3.4 62.3 33.8 66.2 87.8 2.2 29.8-12.4 52.4-21.6 66.2-49.6 74.6-147.7 87.8-174.3 90.6 38.7 25.7 173.9 110.4 321.7 105.4 32.9-1.1 83.9-3.4 139.2-33.8 41.5-22.8 68.4-52.1 83.8-71.6l-28.4-17.6-209.5 71.6-10.8-277.1-166.3-21.5z" opacity=".37"/><path d="M559.3 981.8a426.98 426.98 0 0 0 59.1 32.7c32.4 14.8 128.3 58.6 232.2 34.3 75.5-17.7 133.9-66.2 130.1-74.2-2.4-5-31.7.2-162.2 52.1l-6.2-127-10.9 106.7-242.1-24.6z" opacity=".5"/></g><path d="M586.2 867.8c-7.3-8-9.7-19.2-6.1-29 3.7-9.9 13.5-18.4 25.2-18 10.3.4 18.6 7.6 21.6 14.4 2.2 5.2 1.7 10 1.7 10-.3 2.7-1.2 4.8-1.9 6.1-5.1-5.9-12.9-8.6-20.2-6.9-9 2.1-12.9 9.8-13.3 10.5-4.1 8.4-.5 16.2 0 17.1-2.4-1.5-4.7-2.9-7-4.2z" class="a"/><path d="M1092.2 741.2c-5.4 4-11.2 9.4-16.5 16.5-19.7 26.5-17 57.6-15.6 67.7-17.5-3.6-46.9-7.1-81.6.9a189.46 189.46 0 0 0-49.5 19.1c1.9 1.2 4.5 2.6 7.8 3.5 18.7 5.1 38.4-10.6 39-9.5.6 1-22 11.6-20.8 20.8.8 6.2 11.9 9.5 23.4 13 9.7 2.9 18.9 5.7 31.2 4.3 16.9-1.9 28.6-10.4 33.8-14.8 5 2.5 12.4 5.8 21.7 8.7 17.1 5.2 40.7 12.4 56.4 2.6 10.2-6.4 13.3-21.4 19.1-51.2 7.4-38.2 11.1-57.3.9-69.4-13.5-16.1-40.6-13.4-49.3-12.2z" class="U V W X"/><g class="T"><path d="M1056.7 826.4c12.1 4.5 22.1 12.7 29 23.6 1 1.6 3.6.1 2.6-1.5-7.3-11.6-18-20.2-30.8-25-1.8-.6-2.6 2.3-.8 2.9h0z"/><use xlink:href="#B" x="328.2" y="21"/><path d="M968 869.3c6.2 5.9 14.8 7.9 22.9 5.3 1.8-.6 1-3.5-.8-2.9-7.1 2.3-14.6.7-20-4.5-1.4-1.4-3.5.7-2.1 2.1h0z"/><path d="M1006.3 856.1c-4.3 2.6-8.3 5.6-12.1 8.8-2.5 2.2-5.3 4.8-4.7 8.4 1.5 9.5 12.9 7.4 19.1 5 1.8-.7 1-3.6-.8-2.9-2.7 1-5.7 2.3-8.6 2.2-4.7-.2-8.9-4.7-4.9-8.8 3.8-4 8.8-7.2 13.5-10.2 1.7-.9.2-3.5-1.5-2.5h0z"/></g><path d="M1087.2 598.5c4.1 3.2 9.4 7.6 15 13.3 1.6 1.6 5.7 5.8 9.8 11 6.4 8 10.5 15.6 15 24.9 5.8 11.9 11.6 23.8 17.4 41.6 4.9 15 12.4 38.6 13.3 70 .4 12.4-.4 22.8-1.2 30.1-4.1-4.7-8.2-7.8-11.6-9.8-19.1-11.7-42.3-7.5-64.2-3.5-8.2 1.5-15 3.3-19.7 4.6l3.5-33 2.9-27.8c-1.9-3.3-4.5-8-6.9-13.9-4.7-11.3-14.1-33.5-8.7-58.4 6.4-28.6 28.9-44.8 35.4-49.1z" class="Y"/><g class="T"><path d="M1090.7 604c10 5.2 16.7 14.2 22.5 23.5 6 9.6 11.4 19.5 16.2 29.7 9.8 20.8 17 42.8 21.7 65.3.4 1.9 3.3 1.1 2.9-.8-4.8-23.4-12.4-46.1-22.8-67.7-5.1-10.6-10.7-20.9-17.1-30.8-5.7-8.8-12.4-17-21.8-21.9-1.8-.8-3.3 1.8-1.6 2.7h0zm-31.2 101.7c4.6 9.4 9.4 18.6 14.4 27.8.9 1.7 3.5.2 2.6-1.5-5-9.2-9.8-18.4-14.4-27.8-.9-1.8-3.5-.3-2.6 1.5h0z"/><path d="M1066.6 722.9l-7.4 58.2c-.1 1 1.1 1.7 1.9 1.4 17-5.4 34.7-8 52.5-7.4 14.1.5 32.8 1.8 40.7 15.6 1 1.7 3.5.2 2.6-1.5-7.5-13.2-23.9-15.9-37.7-16.8-19.9-1.4-39.9 1.2-58.8 7.2a23.07 23.07 0 0 0 1.9 1.4l7.4-58.2c.2-1.8-2.8-1.8-3.1.1h0z"/><path d="M1150.9 721c3.5 22 9.2 45.3 3.3 67.4-.5 1.9 2.4 2.7 2.9.8 6-22.6.3-46.4-3.3-69-.3-1.9-3.2-1.1-2.9.8h0z"/></g><g class="Z"><path d="M1079.6 594.8c9.1 17 18.2 37.3 25.9 60.6 15.1 46 19.1 87.3 19.4 118.2l-30.6 1.8 10 71.2c-6.4-3.7-16.2-8.4-28.8-11.2-4.1-.9-19.2-3.9-35.3-1.2-33.8 5.7-54.2 33.4-58.8 40 4.6 1.9 10.5 3.7 17.6 4.1 21.8 1.3 37.7-11.3 42.4-15.3 14.9 7.5 27.9 11.1 37.1 12.9 16.1 3.3 34.9 7.1 45.3-2.9.8-.8 2.6-2.7 6.5-12.4 6.1-15.4 9.3-29.8 13.5-55.9l3.5-22.9 7.6 7.6a121.23 121.23 0 0 0 3.5-19.4c2.1-21.3-2-38.1-5.9-51.8-15.7-55.4-25.1-88.8-56.5-113a138.97 138.97 0 0 0-16.4-10.4z" opacity=".32"/><path d="M1132.5 663.3c6.7 32.6 7.6 60.3 7.1 80.3-.5 18.6-2.4 32.2-4.4 45.9-5.9 41.3-8.9 61.9-20.3 71.5-21.6 18.2-60.1 4.4-69.3.9 8.7 5.8 40 25.5 70.6 14.6 3.2-1.2 6.7-2.7 10.1-4.9 3.6-6.1 8.4-15.5 11.5-27.8 1.8-7.3 2.3-12.6 3-18.8 1.1-10 3-24.6 6.2-42.9l8.8 7.5c1-5.1 2.3-12.9 2.6-22.5.9-23.2-4.2-40.8-10.1-60.9-3.2-11-8.2-25.8-15.8-42.9z" opacity=".29"/></g><path d="M857.6 400.8c1 10.7 2.8 25.7 6.8 43.4 2.6 11.5 4.2 18.8 7.6 27.9 5.1 13.7 14.8 39.9 40.1 57 6.1 4.2 16.2 9.8 30.4 13.1l6.9.7c.8 4.2 1.8 10.4 2.8 17.9 2.4 19.3 1.2 25.2 6.2 30.4 6.1 6.3 15.8 5.7 17.9 5.5 16.7-1.1 25.1-17.7 25.5-18.6-2.7-4.9-5.4-10.9-7.6-17.9-4.8-15.5-4.9-29.3-4.1-38.7 7.7-11.1 16.2-19.6 24.8-26.2 3.3-2.5 6.1-5.9 11-7.6 7-2.4 10.6 0 15.8-1.6 8.6-2.7 12.3-13.8 13.9-18.4 6.1-18.2-1.4-36.2-6.2-46.9-4.3-9.8-15.5-34.1-42.8-53.1-28.1-19.6-84.3-41.4-121.5-13.1-6.4 4.9-21 18-27.5 46.2z" class="U"/><path d="M861.8 442c-6.4-1.1-22.6-4.9-33.1-18.8-16-21.1-7.4-50.6 1.5-66.2 14-24.5 39.5-33 71.5-43.7 19-6.3 37.1-12.3 61.7-11.3 13.6.6 59.7 2.6 87.3 36.9 16.4 20.3 18.2 42.1 21.8 85.1 1.7 19.7.4 30.4-3 40.6-2.5 7.4-10.6 31.1-33.9 40.6-12.2 5-23.5 4-29.7 3l16.9-24.8c3.2.2 14.6.4 23.3-7.5 11.9-10.9 14-32.6 5.3-38.4-6.4-4.3-19.1-.1-30.1 9.8-1-6.3-2.6-13.2-5.3-20.3-12.6-33.9-40-52.5-53.4-60.2-5.3 6.8-22.1 26.7-51.9 34.6-23.6 6.2-43.2 1.8-51.9-.8l3 41.4z" class="a"/><g class="T"><path d="M856.8 403.4c4.1 30.9 8.4 63 23.5 90.8 12.4 22.8 32.4 42.3 58.1 48.8 1.9.5 2.7-2.4.8-2.9-25.4-6.5-45-26.1-57-48.8-14.3-27-18.4-58-22.4-87.9-.3-1.9-3.3-1.9-3 0h0z"/><path d="M938.4 543.4c18.1 0 37.1-9.7 51.3-20.1 14.3-10.5 26-24 34.4-39.6.9-1.7-1.7-3.2-2.6-1.5-8.1 15.2-19.4 28.4-33.3 38.5-13.9 10.2-32.3 19.7-49.8 19.7-2 0-2 3 0 3h0z"/><path d="M989.6 520.9c-2 20.2 1.9 40.4 11.1 58.5.9 1.7 3.5.2 2.6-1.5-9-17.7-12.6-37.3-10.7-57 .2-1.9-2.8-1.9-3 0h0z"/><path d="M946.1 542.9c3.3 11.4 6 23 8 34.7 1.3 7.8 1.8 16.6 10.5 19.5 13 4.4 32.2-3.4 37.2-16.3.7-1.8-2.2-2.6-2.9-.8-2.8 7.3-9.8 11.3-17 13.4-6 1.7-15.1 3.5-20.2-1.4-3-2.9-3.4-7.5-4-11.4l-2.2-12.3c-1.8-8.8-3.9-17.6-6.4-26.2-.6-1.8-3.5-1-3 .8h0z"/><path d="M950.4 555.3c17.8-2.3 29.5-15.9 38.1-30.5 1-1.7-1.6-3.2-2.6-1.5-7.9 13.6-18.9 26.9-35.5 29-1.9.3-1.9 3.3 0 3h0z"/><path d="M949.7 545.1c13.9-1.6 26.4-8.1 35.7-18.6 1.3-1.4-.8-3.6-2.1-2.1-8.7 9.9-20.5 16.2-33.6 17.7-1.8.2-1.9 3.2 0 3h0z"/><path d="M950.2 542.9c11.2-1.6 21.3-6.2 29.9-13.5 1.5-1.3-.7-3.4-2.1-2.1-8.2 7-17.9 11.3-28.6 12.8-1.9.2-1.1 3.1.8 2.8h0z"/><path d="M949.6 545.4c.5 2.4.4 7.2 3.4 8 2.9.8 7.3-2.6 9.6-4 7.9-4.8 14.5-11.3 19.7-18.9 1.1-1.6-1.5-3.1-2.6-1.5-3.7 5.5-8.2 10.4-13.5 14.4-2.5 1.9-5.1 3.5-7.8 5-1.1.6-3.6 2.3-4.7 1.6-.7-.4-1-4.7-1.1-5.4-.5-1.9-3.4-1.1-3 .8h0z"/><path d="M951 548.2c8.6-3.5 16.7-7.9 24.3-13.2 1.6-1.1.1-3.7-1.5-2.6-7.4 5.2-15.2 9.5-23.6 12.9-1.8.7-1 3.6.8 2.9h0z"/><path d="M952.5 551.2c9.6-3.4 18-8.7 25-16.1 1.3-1.4-.8-3.5-2.1-2.1-6.7 6.9-14.6 12.1-23.7 15.3-1.8.7-1 3.6.8 2.9h0z"/><path d="M954.1 549.6c7.1-3.1 13.6-7.3 19.2-12.7 1.4-1.3-.7-3.4-2.1-2.1-5.5 5.2-11.7 9.2-18.6 12.2-1.8.8-.3 3.4 1.5 2.6h0zm-81.7-70.2c-16.3-5.8-21.7-27.1-20.1-42.5 1.7-16.9 16.9-35.3 35.5-27.4 8.9 3.8 12.2 13.6 14.6 22.3 2.5 9.2 3.6 19.4 1.2 28.8-2.1 8.3-7.2 16.2-15.2 19.8s-17.5 1.6-22.9-5.3c-1.2-1.5-3.3.6-2.1 2.1 9.1 11.7 26.2 9.4 35.4-.9 11.7-13.1 10.5-33 5.5-48.7-2.3-7.3-5.3-14.9-12-19.1-5.8-3.7-13.2-4.6-19.7-2.9-15.2 4.1-23.1 20.2-23.4 34.9-.3 16.1 6 36 22.6 41.8 1.6.6 2.4-2.3.6-2.9h0z"/><path d="M907 449.5c9.8-5.9 21.7-6.5 31.9-1.4 1.7.9 3.2-1.7 1.5-2.6-11.2-5.6-24.2-5.1-35 1.4-1.5 1 0 3.6 1.6 2.6h0z"/><path d="M954.8 470.8c-11.3-10.9-16-27.8-11.6-43 4.6-15.8 20.4-29.4 37.4-23.8 18.8 6.2 19.8 33.1 14.9 48.9-2.9 9.3-8.7 18.6-18.3 22s-17.9-1.7-25.6-7.1c-1.6-1.1-3.1 1.5-1.5 2.6 6.3 4.5 13.1 9 21.1 8.7 7.6-.3 14.5-4.5 19.2-10.2 10.6-12.8 12.7-32.3 8.3-47.9-4-14.2-15.8-23.4-30.9-20.9-14.4 2.3-25 15.3-28.2 28.9-3.7 15.7 1.3 32.7 12.9 43.9 1.6 1.4 3.7-.8 2.3-2.1h0zm-73.3-32.9c-1 6.3.1 12.4 3.5 17.8.7 1.1 2.3.9 2.7-.4 2.4-6.9-1-13.7-4.4-19.6-.7-1.3-2.8-.7-2.8.8.1 5.3 1.2 10.5 3.2 15.4.7 1.8 3.6 1 2.9-.8-1.9-4.7-3-9.5-3.1-14.6-.9.3-1.9.5-2.8.8 3.1 5.3 6.3 11.1 4.1 17.3.9-.1 1.8-.2 2.7-.4-3-4.7-4.1-10-3.2-15.5.4-1.9-2.5-2.7-2.8-.8h0zm88.5-2.8c0-1.3-.1-1.6-.7-2.7-.7-1.3-2.8-.7-2.8.8.1 6.2.6 12.9 5.4 17.3 1 .9 2.4.2 2.6-1.1.8-7.4-1.4-14.3-6-20.1-1-1.2-2.8.1-2.5 1.5 1.2 4.9 2.7 9.7 4.5 14.3.7 1.8 3.6 1 2.9-.8-1.9-4.7-3.4-9.4-4.5-14.3-.8.5-1.7 1-2.5 1.5 4.1 5.2 5.8 11.4 5.1 18 .9-.4 1.7-.7 2.6-1.1-4.3-3.9-4.5-9.8-4.6-15.2-.9.3-1.9.5-2.8.8l.3 1.2c0 1.8 3 1.8 3-.1h0zm-53 19.7c-2 6-3.7 12.1-4.8 18.3-.6 3.3-2.7 9.5-1.2 12.8 3 6.7 16.3 2.6 20.9.4 1.7-.8.2-3.4-1.5-2.6-3.7 1.8-7.7 2.7-11.8 2.4-2.4-.2-4.3-.6-4.8-3.3-.3-1.5.7-5.4 1-7.1 1.2-6.9 3-13.6 5.2-20.2.5-1.7-2.4-2.5-3-.7h0z"/><path d="M932.1 512.5c7.5-1 14-5.8 17.3-12.7.8-1.7-1.8-3.3-2.6-1.5-3 6.3-8.6 10.4-15.5 11.3-1.9.3-1 3.2.8 2.9h0zm-56.9-83.2c1.9-2.3 5.4-2.7 7.8-.7 1.5 1.3 3.6-.9 2.1-2.1-3.5-3-8.9-2.8-12 .7-1.3 1.4.8 3.5 2.1 2.1h0zm85.8-5.6c3.1-2.7 7.8-2.7 10.9-.1 1.5 1.2 3.6-.9 2.1-2.1-4.4-3.8-10.8-3.7-15.2.1-1.4 1.3.8 3.4 2.2 2.1h0zm39.4 13.8c10.8-3.8 21.9-6.1 33.4-6.7 1.9-.1 1.9-3.1 0-3-11.7.6-23.1 2.9-34.2 6.8-1.8.7-1.1 3.6.8 2.9h0z"/></g><g class="Z"><path d="M1015.3 312.9c6 7.7 29.1 39.3 24.8 82.7-2.4 24.2-12.4 42-18.7 51.4 3.6-2.8 6.7-4.7 9-6 6.1-3.4 10-5.5 15-5.2 1.5.1 5.1.4 7.7 2.5 7.6 6.4 5 29.1-8.5 39.7-7.4 5.8-16.1 6.4-20.5 6.3l-17.2 24.4c3.8.6 9.6 1.1 16.3.1 2.9-.4 14.5-2.5 25.5-11.3 10.8-8.7 15.2-19.3 18.1-26.5 8-20 6.4-37.6 3.6-69.3-1.2-14.1-1.9-21.3-4.7-30.8-3-10.3-7.7-25.5-21.1-39.1-9.6-10-20.4-15.6-29.3-18.9z" opacity=".4"/><path d="M918.7 398.4c10-8.9 21.2-20.3 32-34.5 6.7-8.8 12.3-17.3 16.9-25.2l-5 27c-3.9 5.6-10.4 13.6-20.5 20.9-8.9 6.3-17.3 9.8-23.4 11.8z" opacity=".48"/><path d="M989.8 387c7.6 25.3 8.2 46.5 7.5 60.5-.5 10.4-3.3 64.9-32 83.7-2.8 1.8-9.9 6-9.6 6.6.4.7 13.7-5.2 21-9.2 11.5-6.2 29.2-18.7 45.6-45.1 2.7.3 15.9 1.2 25.4-7.9 11.5-10.9 13.5-32.3 4.4-38.6-6.5-4.5-18.9-.7-29.8 8.3-1.1-4.6-2.5-9.4-4.4-14.5-7.5-19.8-18.8-34.2-28.1-43.8z" opacity=".27"/><path d="M965.7 537l7.8 24.1 10.6 33.1c2-.4 6.9-1.8 11.2-6.2s5.7-9.2 6.2-11.2c-3.9-7.7-8.5-19.4-10.1-34.2-.8-7.7-.6-14.5 0-20.2L965.7 537z" opacity=".36"/><path d="M915.8 458.3l-15 32 24.5-.5-14.5-4.5 5-27z" opacity=".43"/></g><defs ><path id="B" d="M664.2 825.2c-11.9 2-21.5 10-25.8 21.2-.7 1.8 2.2 2.6 2.9.8 3.9-10.2 12.9-17.3 23.7-19.1 1.9-.3 1.1-3.2-.8-2.9h0z"/></defs></svg>